<?xml version="1.0" encoding="UTF-8"?>
<!-- Generator: Adobe Illustrator 23.0.3, SVG Export Plug-In . SVG Version: 6.00 Build 0)  -->
<svg width="626.67" height="169.92" version="1.1" viewBox="0 0 626.66997 169.91999" xml:space="preserve" xmlns="http://www.w3.org/2000/svg" xmlns:cc="http://creativecommons.org/ns#" xmlns:dc="http://purl.org/dc/elements/1.1/" xmlns:rdf="http://www.w3.org/1999/02/22-rdf-syntax-ns#"><metadata><rdf:RDF><cc:Work rdf:about=""><dc:format>image/svg+xml</dc:format><dc:type rdf:resource="http://purl.org/dc/dcmitype/StillImage"/><dc:title/></cc:Work></rdf:RDF></metadata><style type="text/css">
	.st0{fill:url(#SVGID_1_);}
	.st1{fill:url(#SVGID_2_);}
	.st2{fill:url(#SVGID_3_);}
	.st3{fill:url(#SVGID_4_);}
	.st4{fill:url(#SVGID_5_);}
	.st5{fill:url(#SVGID_6_);}
	.st6{fill:url(#SVGID_7_);}
	.st7{fill:url(#SVGID_8_);}
	.st8{fill:url(#SVGID_9_);}
	.st9{fill:url(#SVGID_10_);}
	.st10{fill:url(#SVGID_11_);}
	.st11{fill:url(#SVGID_12_);}
	.st12{fill:url(#SVGID_13_);}
	.st13{fill:url(#SVGID_14_);}
	.st14{fill:url(#SVGID_15_);}
	.st15{fill:url(#SVGID_16_);}
	.st16{fill:url(#SVGID_17_);}
	.st17{fill:url(#SVGID_18_);}
	.st18{fill:url(#SVGID_19_);}
	.st19{fill:url(#SVGID_20_);}
	.st20{fill:url(#SVGID_21_);}
	.st21{fill:url(#SVGID_22_);}
	.st22{fill:url(#SVGID_23_);}
	.st23{fill:url(#SVGID_24_);}
	.st24{fill:url(#SVGID_25_);}
	.st25{fill:url(#SVGID_26_);}
	.st26{fill:url(#SVGID_27_);}
	.st27{fill:url(#SVGID_28_);}
	.st28{fill:url(#SVGID_29_);}
	.st29{fill:url(#SVGID_30_);}
	.st30{fill:url(#SVGID_31_);}
	.st31{fill:url(#SVGID_32_);}
	.st32{fill:url(#SVGID_33_);}
	.st33{fill:url(#SVGID_34_);}
	.st34{fill:url(#SVGID_35_);}
	.st35{fill:url(#SVGID_36_);}
	.st36{fill:url(#SVGID_37_);}
	.st37{fill:url(#SVGID_38_);}
	.st38{fill:url(#SVGID_39_);}
	.st39{fill:url(#SVGID_40_);}
	.st40{fill:url(#SVGID_41_);}
	.st41{fill:url(#SVGID_42_);}
	.st42{fill:url(#SVGID_43_);}
	.st43{fill:url(#SVGID_44_);}
	.st44{fill:url(#SVGID_45_);}
	.st45{fill:url(#SVGID_46_);}
	.st46{fill:url(#SVGID_47_);}
	.st47{fill:url(#SVGID_48_);}
	.st48{fill:url(#SVGID_49_);}
	.st49{fill:url(#SVGID_50_);}
	.st50{fill:url(#SVGID_51_);}
	.st51{fill:url(#SVGID_52_);}
	.st52{fill:url(#SVGID_53_);}
	.st53{fill:url(#SVGID_54_);}
	.st54{fill:url(#SVGID_55_);}
	.st55{fill:url(#SVGID_56_);}
	.st56{fill:#231A72;}
	.st57{fill:url(#SVGID_57_);}
	.st58{fill:url(#SVGID_58_);}
	.st59{fill:url(#SVGID_59_);}
	.st60{fill:url(#SVGID_60_);}
	.st61{fill:url(#SVGID_61_);}
	.st62{fill:url(#SVGID_62_);}
	.st63{fill:url(#SVGID_63_);}
	.st64{fill:url(#SVGID_64_);}
	.st65{fill:url(#SVGID_65_);}
	.st66{fill:url(#SVGID_66_);}
	.st67{fill:url(#SVGID_67_);}
	.st68{fill:url(#SVGID_68_);}
	.st69{fill:url(#SVGID_69_);}
	.st70{fill:url(#SVGID_70_);}
	.st71{fill:url(#SVGID_71_);}
	.st72{fill:url(#SVGID_72_);}
	.st73{fill:url(#SVGID_73_);}
	.st74{fill:url(#SVGID_74_);}
	.st75{fill:url(#SVGID_75_);}
	.st76{fill:url(#SVGID_76_);}
	.st77{fill:url(#SVGID_77_);}
	.st78{fill:url(#SVGID_78_);}
	.st79{fill:url(#SVGID_79_);}
	.st80{fill:url(#SVGID_80_);}
	.st81{fill:url(#SVGID_81_);}
	.st82{fill:url(#SVGID_82_);}
	.st83{fill:url(#SVGID_83_);}
	.st84{fill:url(#SVGID_84_);}
	.st85{fill:url(#SVGID_85_);}
	.st86{fill:url(#SVGID_86_);}
	.st87{fill:url(#SVGID_87_);}
	.st88{fill:url(#SVGID_88_);}
	.st89{fill:url(#SVGID_89_);}
	.st90{fill:url(#SVGID_90_);}
	.st91{fill:url(#SVGID_91_);}
	.st92{fill:url(#SVGID_92_);}
	.st93{fill:url(#SVGID_93_);}
	.st94{fill:url(#SVGID_94_);}
	.st95{fill:url(#SVGID_95_);}
	.st96{fill:url(#SVGID_96_);}
	.st97{fill:url(#SVGID_97_);}
	.st98{fill:url(#SVGID_98_);}
	.st99{fill:url(#SVGID_99_);}
	.st100{fill:url(#SVGID_100_);}
	.st101{fill:url(#SVGID_101_);}
	.st102{fill:url(#SVGID_102_);}
	.st103{fill:url(#SVGID_103_);}
	.st104{fill:url(#SVGID_104_);}
	.st105{fill:url(#SVGID_105_);}
	.st106{fill:url(#SVGID_106_);}
	.st107{fill:url(#SVGID_107_);}
	.st108{fill:url(#SVGID_108_);}
	.st109{fill:url(#SVGID_109_);}
	.st110{fill:url(#SVGID_110_);}
	.st111{fill:url(#SVGID_111_);}
	.st112{fill:url(#SVGID_112_);}
	.st113{fill:url(#SVGID_113_);}
	.st114{fill:url(#SVGID_114_);}
	.st115{fill:url(#SVGID_115_);}
	.st116{fill:url(#SVGID_116_);}
	.st117{fill:url(#SVGID_117_);}
	.st118{fill:url(#SVGID_118_);}
	.st119{fill:url(#SVGID_119_);}
	.st120{fill:url(#SVGID_120_);}
	.st121{fill:url(#SVGID_121_);}
	.st122{fill:url(#SVGID_122_);}
	.st123{fill:url(#SVGID_123_);}
	.st124{fill:url(#SVGID_124_);}
	.st125{fill:url(#SVGID_125_);}
	.st126{fill:url(#SVGID_126_);}
	.st127{fill:url(#SVGID_127_);}
	.st128{fill:url(#SVGID_128_);}
	.st129{fill:url(#SVGID_129_);}
	.st130{fill:url(#SVGID_130_);}
	.st131{fill:url(#SVGID_131_);}
	.st132{fill:url(#SVGID_132_);}
	.st133{fill:url(#SVGID_133_);}
	.st134{fill:url(#SVGID_134_);}
	.st135{fill:url(#SVGID_135_);}
	.st136{fill:url(#SVGID_136_);}
	.st137{fill:url(#SVGID_137_);}
	.st138{fill:url(#SVGID_138_);}
	.st139{fill:url(#SVGID_139_);}
	.st140{fill:url(#SVGID_140_);}
	.st141{fill:url(#SVGID_141_);}
	.st142{fill:url(#SVGID_142_);}
	.st143{fill:url(#SVGID_143_);}
	.st144{fill:url(#SVGID_144_);}
	.st145{fill:url(#SVGID_145_);}
	.st146{fill:url(#SVGID_146_);}
	.st147{fill:url(#SVGID_147_);}
	.st148{fill:url(#SVGID_148_);}
	.st149{fill:url(#SVGID_149_);}
	.st150{fill:url(#SVGID_150_);}
	.st151{fill:url(#SVGID_151_);}
	.st152{fill:url(#SVGID_152_);}
	.st153{fill:url(#SVGID_153_);}
	.st154{fill:url(#SVGID_154_);}
	.st155{fill:url(#SVGID_155_);}
	.st156{fill:url(#SVGID_156_);}
	.st157{fill:url(#SVGID_157_);}
	.st158{fill:url(#SVGID_158_);}
	.st159{fill:url(#SVGID_159_);}
	.st160{fill:url(#SVGID_160_);}
	.st161{fill:url(#SVGID_161_);}
	.st162{fill:url(#SVGID_162_);}
	.st163{fill:url(#SVGID_163_);}
	.st164{fill:url(#SVGID_164_);}
	.st165{fill:url(#SVGID_165_);}
	.st166{fill:url(#SVGID_166_);}
	.st167{fill:url(#SVGID_167_);}
	.st168{fill:url(#SVGID_168_);}
	.st169{fill:#DE4552;}
	.st170{fill:url(#SVGID_169_);}
</style><g transform="translate(-107.62,-196.97)"><linearGradient id="SVGID_57_" x1="144.42" x2="144.42" y1="197.4" y2="367.83" gradientUnits="userSpaceOnUse"><stop stop-color="#DE4552" offset="0"/><stop stop-color="#231A72" offset="1"/></linearGradient><polygon class="st57" points="137.6 213.73 137.6 245.24 151.24 221.61" fill="url(#SVGID_57_)"/><linearGradient id="SVGID_58_" x1="152.25" x2="152.25" y1="197.4" y2="367.83" gradientUnits="userSpaceOnUse"><stop stop-color="#DE4552" offset="0"/><stop stop-color="#231A72" offset="1"/></linearGradient><polygon class="st58" points="152.27 341.7 165.89 333.84 138.61 318.09" fill="url(#SVGID_58_)"/><linearGradient id="SVGID_59_" x1="159.62" x2="159.62" y1="197.4" y2="367.83" gradientUnits="userSpaceOnUse"><stop stop-color="#DE4552" offset="0"/><stop stop-color="#231A72" offset="1"/></linearGradient><polygon class="st59" points="166.44 229.05 166.44 197.58 152.8 221.18" fill="url(#SVGID_59_)"/><linearGradient id="SVGID_60_" x1="152.22" x2="152.22" y1="197.4" y2="367.83" gradientUnits="userSpaceOnUse"><stop stop-color="#DE4552" offset="0"/><stop stop-color="#231A72" offset="1"/></linearGradient><polygon class="st60" points="152.23 222.18 138.58 245.81 165.87 230.06" fill="url(#SVGID_60_)"/><linearGradient id="SVGID_61_" x1="151.87" x2="151.87" y1="197.4" y2="367.83" gradientUnits="userSpaceOnUse"><stop stop-color="#DE4552" offset="0"/><stop stop-color="#231A72" offset="1"/></linearGradient><polygon class="st61" points="165.5 366.85 151.85 343.26 138.25 351.11" fill="url(#SVGID_61_)"/><linearGradient id="SVGID_62_" x1="159.67" x2="159.67" y1="197.4" y2="367.83" gradientUnits="userSpaceOnUse"><stop stop-color="#DE4552" offset="0"/><stop stop-color="#231A72" offset="1"/></linearGradient><polygon class="st62" points="166.51 366.32 166.51 334.8 152.84 342.69" fill="url(#SVGID_62_)"/><linearGradient id="SVGID_63_" x1="151.82" x2="151.82" y1="197.4" y2="367.83" gradientUnits="userSpaceOnUse"><stop stop-color="#DE4552" offset="0"/><stop stop-color="#231A72" offset="1"/></linearGradient><polygon class="st63" points="138.17 212.73 151.82 220.61 165.47 196.97" fill="url(#SVGID_63_)"/><linearGradient id="SVGID_64_" x1="189.59" x2="189.59" y1="197.4" y2="367.83" gradientUnits="userSpaceOnUse"><stop stop-color="#DE4552" offset="0"/><stop stop-color="#231A72" offset="1"/></linearGradient><polygon class="st64" points="196.41 245.26 196.41 213.74 182.77 221.62" fill="url(#SVGID_64_)"/><linearGradient id="SVGID_65_" x1="212.18" x2="212.18" y1="197.4" y2="367.83" gradientUnits="userSpaceOnUse"><stop stop-color="#DE4552" offset="0"/><stop stop-color="#231A72" offset="1"/></linearGradient><polygon class="st65" points="198.55 214.34 212.19 237.93 225.8 230.07" fill="url(#SVGID_65_)"/><linearGradient id="SVGID_66_" x1="174.39" x2="174.39" y1="197.4" y2="367.83" gradientUnits="userSpaceOnUse"><stop stop-color="#DE4552" offset="0"/><stop stop-color="#231A72" offset="1"/></linearGradient><polygon class="st66" points="167.57 197.58 167.57 229.07 181.21 221.2" fill="url(#SVGID_66_)"/><linearGradient id="SVGID_67_" x1="219.59" x2="219.59" y1="197.4" y2="367.83" gradientUnits="userSpaceOnUse"><stop stop-color="#DE4552" offset="0"/><stop stop-color="#231A72" offset="1"/></linearGradient><polygon class="st67" points="226.41 262.54 226.41 231.05 212.77 238.93" fill="url(#SVGID_67_)"/><linearGradient id="SVGID_68_" x1="181.78" x2="181.78" y1="197.4" y2="367.83" gradientUnits="userSpaceOnUse"><stop stop-color="#DE4552" offset="0"/><stop stop-color="#231A72" offset="1"/></linearGradient><polygon class="st68" points="181.78 222.19 168.15 230.06 195.41 245.79" fill="url(#SVGID_68_)"/><linearGradient id="SVGID_69_" x1="182.2" x2="182.2" y1="197.4" y2="367.83" gradientUnits="userSpaceOnUse"><stop stop-color="#DE4552" offset="0"/><stop stop-color="#231A72" offset="1"/></linearGradient><polygon class="st69" points="168.56 197.01 182.2 220.63 195.84 212.75" fill="url(#SVGID_69_)"/><linearGradient id="SVGID_70_" x1="204.38" x2="204.38" y1="197.4" y2="367.83" gradientUnits="userSpaceOnUse"><stop stop-color="#DE4552" offset="0"/><stop stop-color="#231A72" offset="1"/></linearGradient><polygon class="st70" points="197.55 214.88 197.55 246.38 211.2 238.5" fill="url(#SVGID_70_)"/><linearGradient id="SVGID_71_" x1="207.3" x2="207.3" y1="197.4" y2="367.83" gradientUnits="userSpaceOnUse"><stop stop-color="#DE4552" offset="0"/><stop stop-color="#231A72" offset="1"/></linearGradient><polygon class="st71" points="211.84 324.41 216.39 316.53 211.85 308.66 209.73 309.88 198.2 316.54" fill="url(#SVGID_71_)"/><linearGradient id="SVGID_72_" x1="212.24" x2="212.24" y1="197.4" y2="367.83" gradientUnits="userSpaceOnUse"><stop stop-color="#DE4552" offset="0"/><stop stop-color="#231A72" offset="1"/></linearGradient><polygon class="st72" points="225.89 333.84 212.25 325.97 198.6 349.59" fill="url(#SVGID_72_)"/><linearGradient id="SVGID_73_" x1="204.45" x2="204.45" y1="197.4" y2="367.83" gradientUnits="userSpaceOnUse"><stop stop-color="#DE4552" offset="0"/><stop stop-color="#231A72" offset="1"/></linearGradient><polygon class="st73" points="197.62 317.53 197.62 349.02 211.27 325.4" fill="url(#SVGID_73_)"/><linearGradient id="SVGID_74_" x1="204.47" x2="204.47" y1="197.4" y2="367.83" gradientUnits="userSpaceOnUse"><stop stop-color="#DE4552" offset="0"/><stop stop-color="#231A72" offset="1"/></linearGradient><polygon class="st74" points="211.28 307.67 197.65 284.03 197.65 315.54 204.13 311.8" fill="url(#SVGID_74_)"/><linearGradient id="SVGID_75_" x1="219.15" x2="219.15" y1="197.4" y2="367.83" gradientUnits="userSpaceOnUse"><stop stop-color="#DE4552" offset="0"/><stop stop-color="#231A72" offset="1"/></linearGradient><polygon class="st75" points="212.83 324.98 225.48 332.28 217.05 317.67" fill="url(#SVGID_75_)"/><linearGradient id="SVGID_76_" x1="219.17" x2="219.17" y1="197.4" y2="367.83" gradientUnits="userSpaceOnUse"><stop stop-color="#DE4552" offset="0"/><stop stop-color="#231A72" offset="1"/></linearGradient><polygon class="st76" points="225.5 300.77 212.84 308.09 217.05 315.39" fill="url(#SVGID_76_)"/><linearGradient id="SVGID_77_" x1="212.27" x2="212.27" y1="197.4" y2="367.83" gradientUnits="userSpaceOnUse"><stop stop-color="#DE4552" offset="0"/><stop stop-color="#231A72" offset="1"/></linearGradient><polygon class="st77" points="222.15 297.04 198.65 283.47 212.27 307.1 225.9 299.23" fill="url(#SVGID_77_)"/><linearGradient id="SVGID_78_" x1="182.27" x2="182.27" y1="197.4" y2="367.83" gradientUnits="userSpaceOnUse"><stop stop-color="#DE4552" offset="0"/><stop stop-color="#231A72" offset="1"/></linearGradient><polygon class="st78" points="195.91 351.14 182.27 343.27 168.63 366.89" fill="url(#SVGID_78_)"/><linearGradient id="SVGID_79_" x1="181.86" x2="181.86" y1="197.4" y2="367.83" gradientUnits="userSpaceOnUse"><stop stop-color="#DE4552" offset="0"/><stop stop-color="#231A72" offset="1"/></linearGradient><polygon class="st79" points="181.86 341.71 195.5 318.09 168.23 333.83" fill="url(#SVGID_79_)"/><linearGradient id="SVGID_80_" x1="189.67" x2="189.67" y1="197.4" y2="367.83" gradientUnits="userSpaceOnUse"><stop stop-color="#DE4552" offset="0"/><stop stop-color="#231A72" offset="1"/></linearGradient><polygon class="st80" points="196.49 350.15 196.49 318.66 182.85 342.28" fill="url(#SVGID_80_)"/><linearGradient id="SVGID_81_" x1="144.45" x2="144.45" y1="197.4" y2="367.83" gradientUnits="userSpaceOnUse"><stop stop-color="#DE4552" offset="0"/><stop stop-color="#231A72" offset="1"/></linearGradient><polygon class="st81" points="137.62 318.65 137.62 350.15 151.28 342.27" fill="url(#SVGID_81_)"/><linearGradient id="SVGID_82_" x1="222.09" x2="222.09" y1="197.4" y2="367.83" gradientUnits="userSpaceOnUse"><stop stop-color="#DE4552" offset="0"/><stop stop-color="#231A72" offset="1"/></linearGradient><polygon class="st82" points="226.46 331.71 226.46 301.38 217.71 316.53" fill="url(#SVGID_82_)"/><linearGradient id="SVGID_83_" x1="174.47" x2="174.47" y1="197.4" y2="367.83" gradientUnits="userSpaceOnUse"><stop stop-color="#DE4552" offset="0"/><stop stop-color="#231A72" offset="1"/></linearGradient><polygon class="st83" points="167.65 334.82 167.65 366.32 181.29 342.7" fill="url(#SVGID_83_)"/><linearGradient id="SVGID_84_" x1="211.79" x2="211.79" y1="197.4" y2="367.83" gradientUnits="userSpaceOnUse"><stop stop-color="#DE4552" offset="0"/><stop stop-color="#231A72" offset="1"/></linearGradient><polygon class="st84" points="211.78 239.5 198.16 247.36 225.43 263.1" fill="url(#SVGID_84_)"/><linearGradient id="SVGID_85_" x1="126.78" x2="126.78" y1="197.4" y2="367.83" gradientUnits="userSpaceOnUse"><stop stop-color="#DE4552" offset="0"/><stop stop-color="#231A72" offset="1"/></linearGradient><polygon class="st85" points="122.23 255.22 135.88 247.33 122.25 239.46 117.68 247.37" fill="url(#SVGID_85_)"/><linearGradient id="SVGID_86_" x1="129.64" x2="129.64" y1="197.4" y2="367.83" gradientUnits="userSpaceOnUse"><stop stop-color="#DE4552" offset="0"/><stop stop-color="#231A72" offset="1"/></linearGradient><polygon class="st86" points="136.46 246.34 136.46 214.87 122.82 238.47" fill="url(#SVGID_86_)"/><linearGradient id="SVGID_87_" x1="189.69" x2="189.69" y1="197.4" y2="367.83" gradientUnits="userSpaceOnUse"><stop stop-color="#DE4552" offset="0"/><stop stop-color="#231A72" offset="1"/></linearGradient><polygon class="st87" points="196.51 314.4 196.51 282.9 182.87 290.77" fill="url(#SVGID_87_)"/><linearGradient id="SVGID_88_" x1="121.85" x2="121.85" y1="197.4" y2="367.83" gradientUnits="userSpaceOnUse"><stop stop-color="#DE4552" offset="0"/><stop stop-color="#231A72" offset="1"/></linearGradient><polygon class="st88" points="108.2 230.03 121.84 237.9 135.49 214.27" fill="url(#SVGID_88_)"/><linearGradient id="SVGID_89_" x1="129.15" x2="129.15" y1="197.4" y2="367.83" gradientUnits="userSpaceOnUse"><stop stop-color="#DE4552" offset="0"/><stop stop-color="#231A72" offset="1"/></linearGradient><polygon class="st89" points="135.5 248.87 122.8 256.2 127.04 263.52" fill="url(#SVGID_89_)"/><linearGradient id="SVGID_90_" x1="126.8" x2="126.8" y1="197.4" y2="367.83" gradientUnits="userSpaceOnUse"><stop stop-color="#DE4552" offset="0"/><stop stop-color="#231A72" offset="1"/></linearGradient><polygon class="st90" points="122.25 289.8 135.89 281.92 122.26 274.05 117.71 281.93" fill="url(#SVGID_90_)"/><linearGradient id="SVGID_91_" x1="129.16" x2="129.16" y1="197.4" y2="367.83" gradientUnits="userSpaceOnUse"><stop stop-color="#DE4552" offset="0"/><stop stop-color="#231A72" offset="1"/></linearGradient><polygon class="st91" points="127.04 265.79 122.83 273.06 135.49 280.37" fill="url(#SVGID_91_)"/><linearGradient id="SVGID_92_" x1="112.01" x2="112.01" y1="197.4" y2="367.83" gradientUnits="userSpaceOnUse"><stop stop-color="#DE4552" offset="0"/><stop stop-color="#231A72" offset="1"/></linearGradient><polygon class="st92" points="107.62 266.75 107.62 297.11 116.39 281.93" fill="url(#SVGID_92_)"/><linearGradient id="SVGID_93_" x1="132.1" x2="132.1" y1="197.4" y2="367.83" gradientUnits="userSpaceOnUse"><stop stop-color="#DE4552" offset="0"/><stop stop-color="#231A72" offset="1"/></linearGradient><polygon class="st93" points="136.48 314.41 136.48 284.05 127.71 299.23" fill="url(#SVGID_93_)"/><linearGradient id="SVGID_94_" x1="129.64" x2="129.64" y1="197.4" y2="367.83" gradientUnits="userSpaceOnUse"><stop stop-color="#DE4552" offset="0"/><stop stop-color="#231A72" offset="1"/></linearGradient><polygon class="st94" points="136.46 348.98 136.46 317.53 122.83 325.4" fill="url(#SVGID_94_)"/><linearGradient id="SVGID_95_" x1="132.09" x2="132.09" y1="197.4" y2="367.83" gradientUnits="userSpaceOnUse"><stop stop-color="#DE4552" offset="0"/><stop stop-color="#231A72" offset="1"/></linearGradient><polygon class="st95" points="136.48 279.82 136.48 249.44 127.69 264.65" fill="url(#SVGID_95_)"/><linearGradient id="SVGID_96_" x1="112.01" x2="112.01" y1="197.4" y2="367.83" gradientUnits="userSpaceOnUse"><stop stop-color="#DE4552" offset="0"/><stop stop-color="#231A72" offset="1"/></linearGradient><polygon class="st96" points="107.62 301.35 107.62 331.73 116.4 316.54" fill="url(#SVGID_96_)"/><linearGradient id="SVGID_97_" x1="129.17" x2="129.17" y1="197.4" y2="367.83" gradientUnits="userSpaceOnUse"><stop stop-color="#DE4552" offset="0"/><stop stop-color="#231A72" offset="1"/></linearGradient><polygon class="st97" points="135.51 283.46 122.82 290.78 127.05 298.1" fill="url(#SVGID_97_)"/><linearGradient id="SVGID_98_" x1="121.85" x2="121.85" y1="197.4" y2="367.83" gradientUnits="userSpaceOnUse"><stop stop-color="#DE4552" offset="0"/><stop stop-color="#231A72" offset="1"/></linearGradient><polygon class="st98" points="135.51 349.61 121.84 325.96 108.2 333.84" fill="url(#SVGID_98_)"/><linearGradient id="SVGID_99_" x1="111.99" x2="111.99" y1="197.4" y2="367.83" gradientUnits="userSpaceOnUse"><stop stop-color="#DE4552" offset="0"/><stop stop-color="#231A72" offset="1"/></linearGradient><polygon class="st99" points="107.62 232.28 107.62 262.51 116.37 247.37" fill="url(#SVGID_99_)"/><linearGradient id="SVGID_100_" x1="174.49" x2="174.49" y1="197.4" y2="367.83" gradientUnits="userSpaceOnUse"><stop stop-color="#DE4552" offset="0"/><stop stop-color="#231A72" offset="1"/></linearGradient><polygon class="st100" points="167.67 266.72 167.67 298.22 181.31 290.35" fill="url(#SVGID_100_)"/><linearGradient id="SVGID_101_" x1="114.92" x2="114.92" y1="197.4" y2="367.83" gradientUnits="userSpaceOnUse"><stop stop-color="#DE4552" offset="0"/><stop stop-color="#231A72" offset="1"/></linearGradient><polygon class="st101" points="108.61 263.08 121.24 255.79 117.02 248.51" fill="url(#SVGID_101_)"/><linearGradient id="SVGID_102_" x1="114.88" x2="114.88" y1="197.4" y2="367.83" gradientUnits="userSpaceOnUse"><stop stop-color="#DE4552" offset="0"/><stop stop-color="#231A72" offset="1"/></linearGradient><polygon class="st102" points="121.27 238.89 108.49 231.52 117.02 246.24" fill="url(#SVGID_102_)"/><linearGradient id="SVGID_103_" x1="182.3" x2="182.3" y1="197.4" y2="367.83" gradientUnits="userSpaceOnUse"><stop stop-color="#DE4552" offset="0"/><stop stop-color="#231A72" offset="1"/></linearGradient><polygon class="st103" points="168.66 266.15 182.3 289.78 195.94 281.9" fill="url(#SVGID_103_)"/><linearGradient id="SVGID_104_" x1="117.3" x2="117.3" y1="197.4" y2="367.83" gradientUnits="userSpaceOnUse"><stop stop-color="#DE4552" offset="0"/><stop stop-color="#231A72" offset="1"/></linearGradient><polygon class="st104" points="121.81 256.77 108.21 264.63 121.85 272.5 126.38 264.65" fill="url(#SVGID_104_)"/><linearGradient id="SVGID_105_" x1="181.88" x2="181.88" y1="197.4" y2="367.83" gradientUnits="userSpaceOnUse"><stop stop-color="#DE4552" offset="0"/><stop stop-color="#231A72" offset="1"/></linearGradient><polygon class="st105" points="181.89 291.34 168.24 299.22 195.52 314.97" fill="url(#SVGID_105_)"/><linearGradient id="SVGID_106_" x1="114.94" x2="114.94" y1="197.4" y2="367.83" gradientUnits="userSpaceOnUse"><stop stop-color="#DE4552" offset="0"/><stop stop-color="#231A72" offset="1"/></linearGradient><polygon class="st106" points="108.61 332.28 121.27 324.97 117.05 317.67" fill="url(#SVGID_106_)"/><linearGradient id="SVGID_107_" x1="129.17" x2="129.17" y1="197.4" y2="367.83" gradientUnits="userSpaceOnUse"><stop stop-color="#DE4552" offset="0"/><stop stop-color="#231A72" offset="1"/></linearGradient><polygon class="st107" points="127.05 300.37 122.84 307.66 135.49 314.97" fill="url(#SVGID_107_)"/><linearGradient id="SVGID_108_" x1="114.94" x2="114.94" y1="197.4" y2="367.83" gradientUnits="userSpaceOnUse"><stop stop-color="#DE4552" offset="0"/><stop stop-color="#231A72" offset="1"/></linearGradient><polygon class="st108" points="117.05 315.4 121.27 308.1 108.61 300.79" fill="url(#SVGID_108_)"/><linearGradient id="SVGID_109_" x1="126.8" x2="126.8" y1="197.4" y2="367.83" gradientUnits="userSpaceOnUse"><stop stop-color="#DE4552" offset="0"/><stop stop-color="#231A72" offset="1"/></linearGradient><polygon class="st109" points="117.71 316.54 122.26 324.4 135.88 316.54 122.26 308.67" fill="url(#SVGID_109_)"/><linearGradient id="SVGID_110_" x1="117.31" x2="117.31" y1="197.4" y2="367.83" gradientUnits="userSpaceOnUse"><stop stop-color="#DE4552" offset="0"/><stop stop-color="#231A72" offset="1"/></linearGradient><polygon class="st110" points="121.84 291.35 108.21 299.22 121.85 307.1 126.4 299.23" fill="url(#SVGID_110_)"/><linearGradient id="SVGID_111_" x1="114.93" x2="114.93" y1="197.4" y2="367.83" gradientUnits="userSpaceOnUse"><stop stop-color="#DE4552" offset="0"/><stop stop-color="#231A72" offset="1"/></linearGradient><polygon class="st111" points="117.05 280.79 121.27 273.48 108.59 266.16" fill="url(#SVGID_111_)"/><linearGradient id="SVGID_112_" x1="114.94" x2="114.94" y1="197.4" y2="367.83" gradientUnits="userSpaceOnUse"><stop stop-color="#DE4552" offset="0"/><stop stop-color="#231A72" offset="1"/></linearGradient><polygon class="st112" points="108.61 297.67 121.27 290.36 117.05 283.07" fill="url(#SVGID_112_)"/></g><g transform="translate(-107.62,-196.97)" fill="#231a72"><path class="st56" d="m275.41 334.82c-6.82 0-12.48-2-16.96-5.99-4.87-4.87-7.31-11.26-7.31-19.15v-54.38c0-7.89 2.43-14.28 7.31-19.15 4.48-4 10.13-5.99 16.96-5.99 7.02 0 12.67 2 16.96 5.99 4.87 4.68 7.31 11.06 7.31 19.15v9.06h-16.08v-9.06c0-3.6-0.68-6.04-2.05-7.31-1.27-1.17-3.31-1.75-6.14-1.75-2.73 0-4.73 0.58-5.99 1.75-1.46 1.37-2.19 3.8-2.19 7.31v54.38c0 3.51 0.73 5.95 2.19 7.31 1.27 1.17 3.26 1.75 5.99 1.75 2.83 0 4.87-0.58 6.14-1.75 1.36-1.27 2.05-3.7 2.05-7.31v-19.15h-8.04v-16.08h24.12v35.23c0 8.09-2.44 14.47-7.31 19.15-4.29 4-9.94 5.99-16.96 5.99z"/><path class="st56" d="m340.76 334.82c-7.02 0-12.67-2-16.96-5.99-4.87-4.68-7.31-11.06-7.31-19.15v-54.38c0-8.09 2.43-14.47 7.31-19.15 4.29-4 9.94-5.99 16.96-5.99s12.67 2 16.96 5.99c4.87 4.68 7.31 11.06 7.31 19.15v54.38c0 8.09-2.44 14.47-7.31 19.15-4.3 4-9.95 5.99-16.96 5.99zm0-88.58c-2.73 0-4.73 0.58-5.99 1.75-1.46 1.37-2.19 3.8-2.19 7.31v54.38c0 3.51 0.73 5.95 2.19 7.31 1.27 1.17 3.26 1.75 5.99 1.75 2.83 0 4.82-0.58 5.99-1.75 1.46-1.27 2.19-3.7 2.19-7.31v-54.38c0-3.6-0.73-6.04-2.19-7.31-1.17-1.17-3.17-1.75-5.99-1.75z"/><path class="st56" d="m430.8 333.65h-16.37l-8.33-41.08h-7.31v41.08h-16.08v-102.32h24.27c6.92 0 12.57 2.05 16.96 6.14 4.87 4.48 7.31 10.82 7.31 19v10.96c0 8.28-2.44 14.67-7.31 19.15-0.68 0.68-1.46 1.32-2.34 1.9zm-15.64-77.18c0-3.41-0.73-5.85-2.19-7.31-1.27-1.17-3.27-1.75-5.99-1.75h-8.19v29.09h8.19c2.73 0 4.73-0.58 5.99-1.75 1.46-1.36 2.19-3.8 2.19-7.31z"/><path class="st56" d="m471 334.82c-6.82 0-12.48-2-16.96-5.99-4.87-4.87-7.31-11.26-7.31-19.15v-54.38c0-7.89 2.43-14.28 7.31-19.15 4.48-4 10.13-5.99 16.96-5.99 7.02 0 12.67 2 16.96 5.99 4.87 4.68 7.31 11.06 7.31 19.15v9.06h-16.08v-9.06c0-3.6-0.68-6.04-2.05-7.31-1.27-1.17-3.31-1.75-6.14-1.75-2.73 0-4.73 0.58-5.99 1.75-1.46 1.37-2.19 3.8-2.19 7.31v54.38c0 3.51 0.73 5.95 2.19 7.31 1.27 1.17 3.26 1.75 5.99 1.75 2.82 0 4.87-0.58 6.14-1.75 1.36-1.27 2.05-3.7 2.05-7.31v-19.15h-8.04v-16.08h24.12v35.23c0 8.09-2.44 14.47-7.31 19.15-4.29 4-9.94 5.99-16.96 5.99z"/><path class="st56" d="m536.34 334.82c-7.02 0-12.67-2-16.96-5.99-4.88-4.68-7.31-11.06-7.31-19.15v-54.38c0-8.09 2.43-14.47 7.31-19.15 4.29-4 9.94-5.99 16.96-5.99s12.67 2 16.96 5.99c4.87 4.68 7.31 11.06 7.31 19.15v54.38c0 8.09-2.44 14.47-7.31 19.15-4.29 4-9.94 5.99-16.96 5.99zm0-88.58c-2.73 0-4.73 0.58-5.99 1.75-1.46 1.37-2.19 3.8-2.19 7.31v54.38c0 3.51 0.73 5.95 2.19 7.31 1.27 1.17 3.26 1.75 5.99 1.75 2.82 0 4.82-0.58 5.99-1.75 1.46-1.27 2.19-3.7 2.19-7.31v-54.38c0-3.6-0.73-6.04-2.19-7.31-1.16-1.17-3.16-1.75-5.99-1.75z"/><path class="st56" d="m627.71 231.33v102.33h-9.36l-24.56-51.89v51.89h-16.08v-102.33h9.35l24.56 51.75v-51.75z"/><path class="st56" d="m646.12 333.65v-102.32h16.08v102.33h-16.08z"/><path class="st56" d="m717.9 333.65-2.92-16.23h-18.42l-2.92 16.23h-16.37l20.47-102.33h16.08l20.47 102.33zm-18.57-32.3h12.86l-6.43-36.69z"/></g><linearGradient id="SVGID_169_" x1="1540.1" x2="1540.1" y1="516.22" y2="568.35" gradientTransform="translate(-107.62,-196.97)" gradientUnits="userSpaceOnUse"><stop stop-color="#DE4552" offset="0"/><stop stop-color="#231A72" offset="1"/></linearGradient></svg>
