<?xml version="1.0" encoding="UTF-8" standalone="no"?>
<!DOCTYPE svg PUBLIC "-//W3C//DTD SVG 1.1//EN"
 "http://www.w3.org/Graphics/SVG/1.1/DTD/svg11.dtd">
<!-- Generated by graphviz version 2.40.1 (20161225.0304)
 -->
<!-- Title: %3 Pages: 1 -->
<svg width="202pt" height="174pt"
 viewBox="0.00 0.00 202.27 174.00" xmlns="http://www.w3.org/2000/svg" xmlns:xlink="http://www.w3.org/1999/xlink">
<g id="graph0" class="graph" transform="scale(1 1) rotate(0) translate(4 170)">
<title>%3</title>
<polygon fill="#ffffff" stroke="transparent" points="-4,4 -4,-170 198.2695,-170 198.2695,4 -4,4"/>
<g id="clust3" class="cluster">
<title>cluster_ExprGraph</title>
<polygon fill="#d3d3d3" stroke="#d3d3d3" points="33.1348,-65 33.1348,-158 161.1348,-158 161.1348,-65 33.1348,-65"/>
<text text-anchor="middle" x="97.1348" y="-142.8" font-family="Times,serif" font-size="14.00" fill="#000000">ExprGraph</text>
</g>
<!-- Node_0xc00018a000 -->
<g id="0xc00018a000" class="node">
<title>Node_0xc00018a000</title>
<path fill="#ffff00" stroke="#000000" d="M12,-.5C12,-.5 76.2695,-.5 76.2695,-.5 82.2695,-.5 88.2695,-6.5 88.2695,-12.5 88.2695,-12.5 88.2695,-42.5 88.2695,-42.5 88.2695,-48.5 82.2695,-54.5 76.2695,-54.5 76.2695,-54.5 12,-54.5 12,-54.5 6,-54.5 0,-48.5 0,-42.5 0,-42.5 0,-12.5 0,-12.5 0,-6.5 6,-.5 12,-.5"/>
<text text-anchor="middle" x="19.5" y="-42.5" font-family="Times,serif" font-size="10.00" fill="#000000">x</text>
<polyline fill="none" stroke="#000000" points="39,-36.5 39,-54.5 "/>
<text text-anchor="middle" x="63.5" y="-42.5" font-family="Times,serif" font-size="10.00" fill="#000000">0x0</text>
<polyline fill="none" stroke="#000000" points="0,-36.5 88.2695,-36.5 "/>
<text text-anchor="middle" x="14.1108" y="-24.5" font-family="Times,serif" font-size="10.00" fill="#000000">Op</text>
<polyline fill="none" stroke="#000000" points="28.2217,-18.5 28.2217,-36.5 "/>
<text text-anchor="middle" x="58.2456" y="-24.5" font-family="Times,serif" font-size="10.00" fill="#000000">%!s(&lt;nil&gt;)</text>
<polyline fill="none" stroke="#000000" points="0,-18.5 88.2695,-18.5 "/>
<text text-anchor="middle" x="26.2192" y="-6.5" font-family="Times,serif" font-size="10.00" fill="#000000">Shape</text>
<polyline fill="none" stroke="#000000" points="52.4385,-.5 52.4385,-18.5 "/>
<text text-anchor="middle" x="70.2686" y="-6.5" font-family="Times,serif" font-size="10.00" fill="#000000">()</text>
</g>
<!-- Node_0xc00018a0e0 -->
<g id="0xc00018a0e0" class="node">
<title>Node_0xc00018a0e0</title>
<path fill="#ffff00" stroke="#000000" d="M118,-.5C118,-.5 182.2695,-.5 182.2695,-.5 188.2695,-.5 194.2695,-6.5 194.2695,-12.5 194.2695,-12.5 194.2695,-42.5 194.2695,-42.5 194.2695,-48.5 188.2695,-54.5 182.2695,-54.5 182.2695,-54.5 118,-54.5 118,-54.5 112,-54.5 106,-48.5 106,-42.5 106,-42.5 106,-12.5 106,-12.5 106,-6.5 112,-.5 118,-.5"/>
<text text-anchor="middle" x="125.5" y="-42.5" font-family="Times,serif" font-size="10.00" fill="#000000">y</text>
<polyline fill="none" stroke="#000000" points="145,-36.5 145,-54.5 "/>
<text text-anchor="middle" x="169.5" y="-42.5" font-family="Times,serif" font-size="10.00" fill="#000000">0x1</text>
<polyline fill="none" stroke="#000000" points="106,-36.5 194.2695,-36.5 "/>
<text text-anchor="middle" x="120.1108" y="-24.5" font-family="Times,serif" font-size="10.00" fill="#000000">Op</text>
<polyline fill="none" stroke="#000000" points="134.2217,-18.5 134.2217,-36.5 "/>
<text text-anchor="middle" x="164.2456" y="-24.5" font-family="Times,serif" font-size="10.00" fill="#000000">%!s(&lt;nil&gt;)</text>
<polyline fill="none" stroke="#000000" points="106,-18.5 194.2695,-18.5 "/>
<text text-anchor="middle" x="132.2192" y="-6.5" font-family="Times,serif" font-size="10.00" fill="#000000">Shape</text>
<polyline fill="none" stroke="#000000" points="158.4385,-.5 158.4385,-18.5 "/>
<text text-anchor="middle" x="176.2686" y="-6.5" font-family="Times,serif" font-size="10.00" fill="#000000">()</text>
</g>
<!-- Node_0xc00018a1c0 -->
<g id="0xc00018a1c0" class="node">
<title>Node_0xc00018a1c0</title>
<path fill="#ffffff" stroke="#000000" d="M52.9663,-73.5C52.9663,-73.5 141.3032,-73.5 141.3032,-73.5 147.3032,-73.5 153.3032,-79.5 153.3032,-85.5 153.3032,-85.5 153.3032,-115.5 153.3032,-115.5 153.3032,-121.5 147.3032,-127.5 141.3032,-127.5 141.3032,-127.5 52.9663,-127.5 52.9663,-127.5 46.9663,-127.5 40.9663,-121.5 40.9663,-115.5 40.9663,-115.5 40.9663,-85.5 40.9663,-85.5 40.9663,-79.5 46.9663,-73.5 52.9663,-73.5"/>
<text text-anchor="middle" x="81.6348" y="-115.5" font-family="Times,serif" font-size="10.00" fill="#000000">+ false(%0, %1)</text>
<polyline fill="none" stroke="#000000" points="122.3032,-109.5 122.3032,-127.5 "/>
<text text-anchor="middle" x="137.8032" y="-115.5" font-family="Times,serif" font-size="10.00" fill="#000000">0x2</text>
<polyline fill="none" stroke="#000000" points="40.9663,-109.5 153.3032,-109.5 "/>
<text text-anchor="middle" x="65.0771" y="-97.5" font-family="Times,serif" font-size="10.00" fill="#000000">Op</text>
<polyline fill="none" stroke="#000000" points="89.188,-91.5 89.188,-109.5 "/>
<text text-anchor="middle" x="121.1963" y="-97.5" font-family="Times,serif" font-size="10.00" fill="#000000">+ false</text>
<polyline fill="none" stroke="#000000" points="40.9663,-91.5 153.3032,-91.5 "/>
<text text-anchor="middle" x="73.1855" y="-79.5" font-family="Times,serif" font-size="10.00" fill="#000000">Shape</text>
<polyline fill="none" stroke="#000000" points="105.4048,-73.5 105.4048,-91.5 "/>
<text text-anchor="middle" x="129.2349" y="-79.5" font-family="Times,serif" font-size="10.00" fill="#000000">()</text>
</g>
<!-- Node_0xc00018a1c0&#45;&gt;Node_0xc00018a000 -->
<g id="edge1" class="edge">
<title>Node_0xc00018a1c0&#45;&gt;Node_0xc00018a000</title>
<path fill="none" stroke="#000000" d="M77.3995,-73.3175C75.0175,-70.0365 72.5572,-66.6479 70.1031,-63.2677"/>
<polygon fill="#000000" stroke="#000000" points="72.7707,-60.9845 64.0632,-54.9487 67.1062,-65.0971 72.7707,-60.9845"/>
</g>
<!-- Node_0xc00018a1c0&#45;&gt;Node_0xc00018a0e0 -->
<g id="edge2" class="edge">
<title>Node_0xc00018a1c0&#45;&gt;Node_0xc00018a0e0</title>
<path fill="none" stroke="#000000" d="M116.87,-73.3175C119.2521,-70.0365 121.7123,-66.6479 124.1664,-63.2677"/>
<polygon fill="#000000" stroke="#000000" points="127.1634,-65.0971 130.2063,-54.9487 121.4989,-60.9845 127.1634,-65.0971"/>
</g>
</g>
</svg>
