<?xml version="1.0" encoding="UTF-8"?>
<!-- Generator: Adobe Illustrator 23.0.3, SVG Export Plug-In . SVG Version: 6.00 Build 0)  -->
<svg width="411.91" height="476.08" version="1.1" viewBox="0 0 411.91 476.07996" xml:space="preserve" xmlns="http://www.w3.org/2000/svg" xmlns:cc="http://creativecommons.org/ns#" xmlns:dc="http://purl.org/dc/elements/1.1/" xmlns:rdf="http://www.w3.org/1999/02/22-rdf-syntax-ns#"><metadata><rdf:RDF><cc:Work rdf:about=""><dc:format>image/svg+xml</dc:format><dc:type rdf:resource="http://purl.org/dc/dcmitype/StillImage"/><dc:title/></cc:Work></rdf:RDF></metadata><style type="text/css">
	.st0{fill:url(#SVGID_1_);}
	.st1{fill:url(#SVGID_2_);}
	.st2{fill:url(#SVGID_3_);}
	.st3{fill:url(#SVGID_4_);}
	.st4{fill:url(#SVGID_5_);}
	.st5{fill:url(#SVGID_6_);}
	.st6{fill:url(#SVGID_7_);}
	.st7{fill:url(#SVGID_8_);}
	.st8{fill:url(#SVGID_9_);}
	.st9{fill:url(#SVGID_10_);}
	.st10{fill:url(#SVGID_11_);}
	.st11{fill:url(#SVGID_12_);}
	.st12{fill:url(#SVGID_13_);}
	.st13{fill:url(#SVGID_14_);}
	.st14{fill:url(#SVGID_15_);}
	.st15{fill:url(#SVGID_16_);}
	.st16{fill:url(#SVGID_17_);}
	.st17{fill:url(#SVGID_18_);}
	.st18{fill:url(#SVGID_19_);}
	.st19{fill:url(#SVGID_20_);}
	.st20{fill:url(#SVGID_21_);}
	.st21{fill:url(#SVGID_22_);}
	.st22{fill:url(#SVGID_23_);}
	.st23{fill:url(#SVGID_24_);}
	.st24{fill:url(#SVGID_25_);}
	.st25{fill:url(#SVGID_26_);}
	.st26{fill:url(#SVGID_27_);}
	.st27{fill:url(#SVGID_28_);}
	.st28{fill:url(#SVGID_29_);}
	.st29{fill:url(#SVGID_30_);}
	.st30{fill:url(#SVGID_31_);}
	.st31{fill:url(#SVGID_32_);}
	.st32{fill:url(#SVGID_33_);}
	.st33{fill:url(#SVGID_34_);}
	.st34{fill:url(#SVGID_35_);}
	.st35{fill:url(#SVGID_36_);}
	.st36{fill:url(#SVGID_37_);}
	.st37{fill:url(#SVGID_38_);}
	.st38{fill:url(#SVGID_39_);}
	.st39{fill:url(#SVGID_40_);}
	.st40{fill:url(#SVGID_41_);}
	.st41{fill:url(#SVGID_42_);}
	.st42{fill:url(#SVGID_43_);}
	.st43{fill:url(#SVGID_44_);}
	.st44{fill:url(#SVGID_45_);}
	.st45{fill:url(#SVGID_46_);}
	.st46{fill:url(#SVGID_47_);}
	.st47{fill:url(#SVGID_48_);}
	.st48{fill:url(#SVGID_49_);}
	.st49{fill:url(#SVGID_50_);}
	.st50{fill:url(#SVGID_51_);}
	.st51{fill:url(#SVGID_52_);}
	.st52{fill:url(#SVGID_53_);}
	.st53{fill:url(#SVGID_54_);}
	.st54{fill:url(#SVGID_55_);}
	.st55{fill:url(#SVGID_56_);}
	.st56{fill:#231A72;}
	.st57{fill:url(#SVGID_57_);}
	.st58{fill:url(#SVGID_58_);}
	.st59{fill:url(#SVGID_59_);}
	.st60{fill:url(#SVGID_60_);}
	.st61{fill:url(#SVGID_61_);}
	.st62{fill:url(#SVGID_62_);}
	.st63{fill:url(#SVGID_63_);}
	.st64{fill:url(#SVGID_64_);}
	.st65{fill:url(#SVGID_65_);}
	.st66{fill:url(#SVGID_66_);}
	.st67{fill:url(#SVGID_67_);}
	.st68{fill:url(#SVGID_68_);}
	.st69{fill:url(#SVGID_69_);}
	.st70{fill:url(#SVGID_70_);}
	.st71{fill:url(#SVGID_71_);}
	.st72{fill:url(#SVGID_72_);}
	.st73{fill:url(#SVGID_73_);}
	.st74{fill:url(#SVGID_74_);}
	.st75{fill:url(#SVGID_75_);}
	.st76{fill:url(#SVGID_76_);}
	.st77{fill:url(#SVGID_77_);}
	.st78{fill:url(#SVGID_78_);}
	.st79{fill:url(#SVGID_79_);}
	.st80{fill:url(#SVGID_80_);}
	.st81{fill:url(#SVGID_81_);}
	.st82{fill:url(#SVGID_82_);}
	.st83{fill:url(#SVGID_83_);}
	.st84{fill:url(#SVGID_84_);}
	.st85{fill:url(#SVGID_85_);}
	.st86{fill:url(#SVGID_86_);}
	.st87{fill:url(#SVGID_87_);}
	.st88{fill:url(#SVGID_88_);}
	.st89{fill:url(#SVGID_89_);}
	.st90{fill:url(#SVGID_90_);}
	.st91{fill:url(#SVGID_91_);}
	.st92{fill:url(#SVGID_92_);}
	.st93{fill:url(#SVGID_93_);}
	.st94{fill:url(#SVGID_94_);}
	.st95{fill:url(#SVGID_95_);}
	.st96{fill:url(#SVGID_96_);}
	.st97{fill:url(#SVGID_97_);}
	.st98{fill:url(#SVGID_98_);}
	.st99{fill:url(#SVGID_99_);}
	.st100{fill:url(#SVGID_100_);}
	.st101{fill:url(#SVGID_101_);}
	.st102{fill:url(#SVGID_102_);}
	.st103{fill:url(#SVGID_103_);}
	.st104{fill:url(#SVGID_104_);}
	.st105{fill:url(#SVGID_105_);}
	.st106{fill:url(#SVGID_106_);}
	.st107{fill:url(#SVGID_107_);}
	.st108{fill:url(#SVGID_108_);}
	.st109{fill:url(#SVGID_109_);}
	.st110{fill:url(#SVGID_110_);}
	.st111{fill:url(#SVGID_111_);}
	.st112{fill:url(#SVGID_112_);}
	.st113{fill:url(#SVGID_113_);}
	.st114{fill:url(#SVGID_114_);}
	.st115{fill:url(#SVGID_115_);}
	.st116{fill:url(#SVGID_116_);}
	.st117{fill:url(#SVGID_117_);}
	.st118{fill:url(#SVGID_118_);}
	.st119{fill:url(#SVGID_119_);}
	.st120{fill:url(#SVGID_120_);}
	.st121{fill:url(#SVGID_121_);}
	.st122{fill:url(#SVGID_122_);}
	.st123{fill:url(#SVGID_123_);}
	.st124{fill:url(#SVGID_124_);}
	.st125{fill:url(#SVGID_125_);}
	.st126{fill:url(#SVGID_126_);}
	.st127{fill:url(#SVGID_127_);}
	.st128{fill:url(#SVGID_128_);}
	.st129{fill:url(#SVGID_129_);}
	.st130{fill:url(#SVGID_130_);}
	.st131{fill:url(#SVGID_131_);}
	.st132{fill:url(#SVGID_132_);}
	.st133{fill:url(#SVGID_133_);}
	.st134{fill:url(#SVGID_134_);}
	.st135{fill:url(#SVGID_135_);}
	.st136{fill:url(#SVGID_136_);}
	.st137{fill:url(#SVGID_137_);}
	.st138{fill:url(#SVGID_138_);}
	.st139{fill:url(#SVGID_139_);}
	.st140{fill:url(#SVGID_140_);}
	.st141{fill:url(#SVGID_141_);}
	.st142{fill:url(#SVGID_142_);}
	.st143{fill:url(#SVGID_143_);}
	.st144{fill:url(#SVGID_144_);}
	.st145{fill:url(#SVGID_145_);}
	.st146{fill:url(#SVGID_146_);}
	.st147{fill:url(#SVGID_147_);}
	.st148{fill:url(#SVGID_148_);}
	.st149{fill:url(#SVGID_149_);}
	.st150{fill:url(#SVGID_150_);}
	.st151{fill:url(#SVGID_151_);}
	.st152{fill:url(#SVGID_152_);}
	.st153{fill:url(#SVGID_153_);}
	.st154{fill:url(#SVGID_154_);}
	.st155{fill:url(#SVGID_155_);}
	.st156{fill:url(#SVGID_156_);}
	.st157{fill:url(#SVGID_157_);}
	.st158{fill:url(#SVGID_158_);}
	.st159{fill:url(#SVGID_159_);}
	.st160{fill:url(#SVGID_160_);}
	.st161{fill:url(#SVGID_161_);}
	.st162{fill:url(#SVGID_162_);}
	.st163{fill:url(#SVGID_163_);}
	.st164{fill:url(#SVGID_164_);}
	.st165{fill:url(#SVGID_165_);}
	.st166{fill:url(#SVGID_166_);}
	.st167{fill:url(#SVGID_167_);}
	.st168{fill:url(#SVGID_168_);}
	.st169{fill:#DE4552;}
	.st170{fill:url(#SVGID_169_);}
</style><g transform="translate(662.34,-42.83)"><linearGradient id="SVGID_1_" x1="-502.31" x2="-502.31" y1="43.748" y2="405.17" gradientUnits="userSpaceOnUse"><stop stop-color="#DE4552" offset="0"/><stop stop-color="#231A72" offset="1"/></linearGradient><polygon class="st0" points="-516.78 78.38 -516.78 145.19 -487.84 95.09" fill="url(#SVGID_1_)"/><linearGradient id="SVGID_2_" x1="-485.71" x2="-485.71" y1="43.748" y2="405.17" gradientUnits="userSpaceOnUse"><stop stop-color="#DE4552" offset="0"/><stop stop-color="#231A72" offset="1"/></linearGradient><polygon class="st1" points="-485.67 349.75 -456.79 333.08 -514.63 299.68" fill="url(#SVGID_2_)"/><linearGradient id="SVGID_3_" x1="-470.08" x2="-470.08" y1="43.748" y2="405.17" gradientUnits="userSpaceOnUse"><stop stop-color="#DE4552" offset="0"/><stop stop-color="#231A72" offset="1"/></linearGradient><polygon class="st2" points="-455.62 110.87 -455.62 44.12 -484.53 94.18" fill="url(#SVGID_3_)"/><linearGradient id="SVGID_4_" x1="-485.76" x2="-485.76" y1="43.748" y2="405.17" gradientUnits="userSpaceOnUse"><stop stop-color="#DE4552" offset="0"/><stop stop-color="#231A72" offset="1"/></linearGradient><polygon class="st3" points="-485.75 96.3 -514.69 146.4 -456.83 113" fill="url(#SVGID_4_)"/><linearGradient id="SVGID_5_" x1="-486.5" x2="-486.5" y1="43.748" y2="405.17" gradientUnits="userSpaceOnUse"><stop stop-color="#DE4552" offset="0"/><stop stop-color="#231A72" offset="1"/></linearGradient><polygon class="st4" points="-457.6 403.09 -486.54 353.06 -515.4 369.72" fill="url(#SVGID_5_)"/><linearGradient id="SVGID_6_" x1="-469.96" x2="-469.96" y1="43.748" y2="405.17" gradientUnits="userSpaceOnUse"><stop stop-color="#DE4552" offset="0"/><stop stop-color="#231A72" offset="1"/></linearGradient><polygon class="st5" points="-455.47 401.97 -455.47 335.12 -484.46 351.85" fill="url(#SVGID_6_)"/><linearGradient id="SVGID_7_" x1="-486.62" x2="-486.62" y1="43.748" y2="405.17" gradientUnits="userSpaceOnUse"><stop stop-color="#DE4552" offset="0"/><stop stop-color="#231A72" offset="1"/></linearGradient><polygon class="st6" points="-515.57 76.26 -486.62 92.97 -457.67 42.83" fill="url(#SVGID_7_)"/><linearGradient id="SVGID_8_" x1="-406.52" x2="-406.52" y1="43.748" y2="405.17" gradientUnits="userSpaceOnUse"><stop stop-color="#DE4552" offset="0"/><stop stop-color="#231A72" offset="1"/></linearGradient><polygon class="st7" points="-392.05 145.24 -392.05 78.4 -420.98 95.11" fill="url(#SVGID_8_)"/><linearGradient id="SVGID_9_" x1="-358.62" x2="-358.62" y1="43.748" y2="405.17" gradientUnits="userSpaceOnUse"><stop stop-color="#DE4552" offset="0"/><stop stop-color="#231A72" offset="1"/></linearGradient><polygon class="st8" points="-387.52 79.66 -358.6 129.69 -329.72 113.03" fill="url(#SVGID_9_)"/><linearGradient id="SVGID_10_" x1="-438.75" x2="-438.75" y1="43.748" y2="405.17" gradientUnits="userSpaceOnUse"><stop stop-color="#DE4552" offset="0"/><stop stop-color="#231A72" offset="1"/></linearGradient><polygon class="st9" points="-453.21 44.12 -453.21 110.91 -424.29 94.21" fill="url(#SVGID_10_)"/><linearGradient id="SVGID_11_" x1="-342.9" x2="-342.9" y1="43.748" y2="405.17" gradientUnits="userSpaceOnUse"><stop stop-color="#DE4552" offset="0"/><stop stop-color="#231A72" offset="1"/></linearGradient><polygon class="st10" points="-328.43 181.88 -328.43 115.11 -357.37 131.82" fill="url(#SVGID_11_)"/><linearGradient id="SVGID_12_" x1="-423.08" x2="-423.08" y1="43.748" y2="405.17" gradientUnits="userSpaceOnUse"><stop stop-color="#DE4552" offset="0"/><stop stop-color="#231A72" offset="1"/></linearGradient><polygon class="st11" points="-423.08 96.32 -451.98 113.01 -394.19 146.37" fill="url(#SVGID_12_)"/><linearGradient id="SVGID_13_" x1="-422.19" x2="-422.19" y1="43.748" y2="405.17" gradientUnits="userSpaceOnUse"><stop stop-color="#DE4552" offset="0"/><stop stop-color="#231A72" offset="1"/></linearGradient><polygon class="st12" points="-451.11 42.91 -422.2 93 -393.27 76.3" fill="url(#SVGID_13_)"/><linearGradient id="SVGID_14_" x1="-375.16" x2="-375.16" y1="43.748" y2="405.17" gradientUnits="userSpaceOnUse"><stop stop-color="#DE4552" offset="0"/><stop stop-color="#231A72" offset="1"/></linearGradient><polygon class="st13" points="-389.64 80.81 -389.64 147.62 -360.68 130.9" fill="url(#SVGID_14_)"/><linearGradient id="SVGID_15_" x1="-368.97" x2="-368.97" y1="43.748" y2="405.17" gradientUnits="userSpaceOnUse"><stop stop-color="#DE4552" offset="0"/><stop stop-color="#231A72" offset="1"/></linearGradient><polygon class="st14" points="-359.33 313.09 -349.68 296.39 -359.31 279.68 -363.82 282.28 -388.26 296.39" fill="url(#SVGID_15_)"/><linearGradient id="SVGID_16_" x1="-358.48" x2="-358.48" y1="43.748" y2="405.17" gradientUnits="userSpaceOnUse"><stop stop-color="#DE4552" offset="0"/><stop stop-color="#231A72" offset="1"/></linearGradient><polygon class="st15" points="-329.55 333.09 -358.46 316.4 -387.41 366.5" fill="url(#SVGID_16_)"/><linearGradient id="SVGID_17_" x1="-375.01" x2="-375.01" y1="43.748" y2="405.17" gradientUnits="userSpaceOnUse"><stop stop-color="#DE4552" offset="0"/><stop stop-color="#231A72" offset="1"/></linearGradient><polygon class="st16" points="-389.48 298.49 -389.48 365.27 -360.55 315.2" fill="url(#SVGID_17_)"/><linearGradient id="SVGID_18_" x1="-374.97" x2="-374.97" y1="43.748" y2="405.17" gradientUnits="userSpaceOnUse"><stop stop-color="#DE4552" offset="0"/><stop stop-color="#231A72" offset="1"/></linearGradient><polygon class="st17" points="-360.52 277.59 -389.43 227.45 -389.43 294.28 -375.68 286.34" fill="url(#SVGID_18_)"/><linearGradient id="SVGID_19_" x1="-343.83" x2="-343.83" y1="43.748" y2="405.17" gradientUnits="userSpaceOnUse"><stop stop-color="#DE4552" offset="0"/><stop stop-color="#231A72" offset="1"/></linearGradient><polygon class="st18" points="-357.24 314.3 -330.41 329.79 -348.28 298.8" fill="url(#SVGID_19_)"/><linearGradient id="SVGID_20_" x1="-343.79" x2="-343.79" y1="43.748" y2="405.17" gradientUnits="userSpaceOnUse"><stop stop-color="#DE4552" offset="0"/><stop stop-color="#231A72" offset="1"/></linearGradient><polygon class="st19" points="-330.36 262.97 -357.22 278.47 -348.28 293.97" fill="url(#SVGID_20_)"/><linearGradient id="SVGID_21_" x1="-358.42" x2="-358.42" y1="43.748" y2="405.17" gradientUnits="userSpaceOnUse"><stop stop-color="#DE4552" offset="0"/><stop stop-color="#231A72" offset="1"/></linearGradient><polygon class="st20" points="-337.47 255.06 -387.31 226.28 -358.42 276.38 -329.52 259.69" fill="url(#SVGID_21_)"/><linearGradient id="SVGID_22_" x1="-422.04" x2="-422.04" y1="43.748" y2="405.17" gradientUnits="userSpaceOnUse"><stop stop-color="#DE4552" offset="0"/><stop stop-color="#231A72" offset="1"/></linearGradient><polygon class="st21" points="-393.12 369.78 -422.04 353.08 -450.96 403.17" fill="url(#SVGID_22_)"/><linearGradient id="SVGID_23_" x1="-422.91" x2="-422.91" y1="43.748" y2="405.17" gradientUnits="userSpaceOnUse"><stop stop-color="#DE4552" offset="0"/><stop stop-color="#231A72" offset="1"/></linearGradient><polygon class="st22" points="-422.91 349.77 -393.99 299.68 -451.83 333.07" fill="url(#SVGID_23_)"/><linearGradient id="SVGID_24_" x1="-406.36" x2="-406.36" y1="43.748" y2="405.17" gradientUnits="userSpaceOnUse"><stop stop-color="#DE4552" offset="0"/><stop stop-color="#231A72" offset="1"/></linearGradient><polygon class="st23" points="-391.9 367.68 -391.9 300.89 -420.82 350.98" fill="url(#SVGID_24_)"/><linearGradient id="SVGID_25_" x1="-502.24" x2="-502.24" y1="43.748" y2="405.17" gradientUnits="userSpaceOnUse"><stop stop-color="#DE4552" offset="0"/><stop stop-color="#231A72" offset="1"/></linearGradient><polygon class="st24" points="-516.73 300.88 -516.73 367.68 -487.76 350.96" fill="url(#SVGID_25_)"/><linearGradient id="SVGID_26_" x1="-337.61" x2="-337.61" y1="43.748" y2="405.17" gradientUnits="userSpaceOnUse"><stop stop-color="#DE4552" offset="0"/><stop stop-color="#231A72" offset="1"/></linearGradient><polygon class="st25" points="-328.33 328.57 -328.33 264.26 -346.89 296.38" fill="url(#SVGID_26_)"/><linearGradient id="SVGID_27_" x1="-438.59" x2="-438.59" y1="43.748" y2="405.17" gradientUnits="userSpaceOnUse"><stop stop-color="#DE4552" offset="0"/><stop stop-color="#231A72" offset="1"/></linearGradient><polygon class="st26" points="-453.05 335.18 -453.05 401.96 -424.13 351.87" fill="url(#SVGID_27_)"/><linearGradient id="SVGID_28_" x1="-359.43" x2="-359.43" y1="43.748" y2="405.17" gradientUnits="userSpaceOnUse"><stop stop-color="#DE4552" offset="0"/><stop stop-color="#231A72" offset="1"/></linearGradient><polygon class="st27" points="-359.46 133.02 -388.34 149.7 -330.52 183.08" fill="url(#SVGID_28_)"/><linearGradient id="SVGID_29_" x1="-539.72" x2="-539.72" y1="43.748" y2="405.17" gradientUnits="userSpaceOnUse"><stop stop-color="#DE4552" offset="0"/><stop stop-color="#231A72" offset="1"/></linearGradient><polygon class="st28" points="-549.38 166.35 -520.42 149.64 -549.32 132.95 -559.02 149.72" fill="url(#SVGID_29_)"/><linearGradient id="SVGID_30_" x1="-533.65" x2="-533.65" y1="43.748" y2="405.17" gradientUnits="userSpaceOnUse"><stop stop-color="#DE4552" offset="0"/><stop stop-color="#231A72" offset="1"/></linearGradient><polygon class="st29" points="-519.19 147.53 -519.19 80.79 -548.11 130.84" fill="url(#SVGID_30_)"/><linearGradient id="SVGID_31_" x1="-406.3" x2="-406.3" y1="43.748" y2="405.17" gradientUnits="userSpaceOnUse"><stop stop-color="#DE4552" offset="0"/><stop stop-color="#231A72" offset="1"/></linearGradient><polygon class="st30" points="-391.84 291.86 -391.84 225.06 -420.77 241.76" fill="url(#SVGID_31_)"/><linearGradient id="SVGID_32_" x1="-550.18" x2="-550.18" y1="43.748" y2="405.17" gradientUnits="userSpaceOnUse"><stop stop-color="#DE4552" offset="0"/><stop stop-color="#231A72" offset="1"/></linearGradient><polygon class="st31" points="-579.12 112.93 -550.2 129.64 -521.24 79.51" fill="url(#SVGID_32_)"/><linearGradient id="SVGID_33_" x1="-534.69" x2="-534.69" y1="43.748" y2="405.17" gradientUnits="userSpaceOnUse"><stop stop-color="#DE4552" offset="0"/><stop stop-color="#231A72" offset="1"/></linearGradient><polygon class="st32" points="-521.23 152.9 -548.16 168.45 -539.18 183.95" fill="url(#SVGID_33_)"/><linearGradient id="SVGID_34_" x1="-539.68" x2="-539.68" y1="43.748" y2="405.17" gradientUnits="userSpaceOnUse"><stop stop-color="#DE4552" offset="0"/><stop stop-color="#231A72" offset="1"/></linearGradient><polygon class="st33" points="-549.32 239.68 -520.4 222.99 -549.31 206.3 -558.96 223" fill="url(#SVGID_34_)"/><linearGradient id="SVGID_35_" x1="-534.67" x2="-534.67" y1="43.748" y2="405.17" gradientUnits="userSpaceOnUse"><stop stop-color="#DE4552" offset="0"/><stop stop-color="#231A72" offset="1"/></linearGradient><polygon class="st34" points="-539.17 188.77 -548.09 204.2 -521.24 219.71" fill="url(#SVGID_35_)"/><linearGradient id="SVGID_36_" x1="-571.05" x2="-571.05" y1="43.748" y2="405.17" gradientUnits="userSpaceOnUse"><stop stop-color="#DE4552" offset="0"/><stop stop-color="#231A72" offset="1"/></linearGradient><polygon class="st35" points="-580.35 190.82 -580.35 255.19 -561.74 223" fill="url(#SVGID_36_)"/><linearGradient id="SVGID_37_" x1="-528.44" x2="-528.44" y1="43.748" y2="405.17" gradientUnits="userSpaceOnUse"><stop stop-color="#DE4552" offset="0"/><stop stop-color="#231A72" offset="1"/></linearGradient><polygon class="st36" points="-519.14 291.88 -519.14 227.51 -537.75 259.7" fill="url(#SVGID_37_)"/><linearGradient id="SVGID_38_" x1="-533.64" x2="-533.64" y1="43.748" y2="405.17" gradientUnits="userSpaceOnUse"><stop stop-color="#DE4552" offset="0"/><stop stop-color="#231A72" offset="1"/></linearGradient><polygon class="st37" points="-519.19 365.2 -519.19 298.49 -548.1 315.18" fill="url(#SVGID_38_)"/><linearGradient id="SVGID_39_" x1="-528.46" x2="-528.46" y1="43.748" y2="405.17" gradientUnits="userSpaceOnUse"><stop stop-color="#DE4552" offset="0"/><stop stop-color="#231A72" offset="1"/></linearGradient><polygon class="st38" points="-519.14 218.52 -519.14 154.11 -537.78 186.36" fill="url(#SVGID_39_)"/><linearGradient id="SVGID_40_" x1="-571.04" x2="-571.04" y1="43.748" y2="405.17" gradientUnits="userSpaceOnUse"><stop stop-color="#DE4552" offset="0"/><stop stop-color="#231A72" offset="1"/></linearGradient><polygon class="st39" points="-580.35 264.19 -580.35 328.61 -561.74 296.4" fill="url(#SVGID_40_)"/><linearGradient id="SVGID_41_" x1="-534.65" x2="-534.65" y1="43.748" y2="405.17" gradientUnits="userSpaceOnUse"><stop stop-color="#DE4552" offset="0"/><stop stop-color="#231A72" offset="1"/></linearGradient><polygon class="st40" points="-521.2 226.24 -548.11 241.78 -539.14 257.29" fill="url(#SVGID_41_)"/><linearGradient id="SVGID_42_" x1="-550.16" x2="-550.16" y1="43.748" y2="405.17" gradientUnits="userSpaceOnUse"><stop stop-color="#DE4552" offset="0"/><stop stop-color="#231A72" offset="1"/></linearGradient><polygon class="st41" points="-521.2 366.54 -550.18 316.39 -579.13 333.09" fill="url(#SVGID_42_)"/><linearGradient id="SVGID_43_" x1="-571.07" x2="-571.07" y1="43.748" y2="405.17" gradientUnits="userSpaceOnUse"><stop stop-color="#DE4552" offset="0"/><stop stop-color="#231A72" offset="1"/></linearGradient><polygon class="st42" points="-580.35 117.72 -580.35 181.83 -561.8 149.72" fill="url(#SVGID_43_)"/><linearGradient id="SVGID_44_" x1="-438.54" x2="-438.54" y1="43.748" y2="405.17" gradientUnits="userSpaceOnUse"><stop stop-color="#DE4552" offset="0"/><stop stop-color="#231A72" offset="1"/></linearGradient><polygon class="st43" points="-453 190.74 -453 257.55 -424.08 240.85" fill="url(#SVGID_44_)"/><linearGradient id="SVGID_45_" x1="-564.86" x2="-564.86" y1="43.748" y2="405.17" gradientUnits="userSpaceOnUse"><stop stop-color="#DE4552" offset="0"/><stop stop-color="#231A72" offset="1"/></linearGradient><polygon class="st44" points="-578.26 183.03 -551.46 167.56 -560.41 152.13" fill="url(#SVGID_45_)"/><linearGradient id="SVGID_46_" x1="-564.96" x2="-564.96" y1="43.748" y2="405.17" gradientUnits="userSpaceOnUse"><stop stop-color="#DE4552" offset="0"/><stop stop-color="#231A72" offset="1"/></linearGradient><polygon class="st45" points="-551.41 131.74 -578.5 116.1 -560.41 147.32" fill="url(#SVGID_46_)"/><linearGradient id="SVGID_47_" x1="-421.98" x2="-421.98" y1="43.748" y2="405.17" gradientUnits="userSpaceOnUse"><stop stop-color="#DE4552" offset="0"/><stop stop-color="#231A72" offset="1"/></linearGradient><polygon class="st46" points="-450.91 189.53 -421.99 239.64 -393.05 222.94" fill="url(#SVGID_47_)"/><linearGradient id="SVGID_48_" x1="-559.83" x2="-559.83" y1="43.748" y2="405.17" gradientUnits="userSpaceOnUse"><stop stop-color="#DE4552" offset="0"/><stop stop-color="#231A72" offset="1"/></linearGradient><polygon class="st47" points="-550.25 169.66 -579.09 186.31 -550.18 203 -540.57 186.36" fill="url(#SVGID_48_)"/><linearGradient id="SVGID_49_" x1="-422.86" x2="-422.86" y1="43.748" y2="405.17" gradientUnits="userSpaceOnUse"><stop stop-color="#DE4552" offset="0"/><stop stop-color="#231A72" offset="1"/></linearGradient><polygon class="st48" points="-422.86 242.96 -451.79 259.67 -393.93 293.07" fill="url(#SVGID_49_)"/><linearGradient id="SVGID_50_" x1="-564.82" x2="-564.82" y1="43.748" y2="405.17" gradientUnits="userSpaceOnUse"><stop stop-color="#DE4552" offset="0"/><stop stop-color="#231A72" offset="1"/></linearGradient><polygon class="st49" points="-578.24 329.78 -551.4 314.28 -560.34 298.81" fill="url(#SVGID_50_)"/><linearGradient id="SVGID_51_" x1="-534.66" x2="-534.66" y1="43.748" y2="405.17" gradientUnits="userSpaceOnUse"><stop stop-color="#DE4552" offset="0"/><stop stop-color="#231A72" offset="1"/></linearGradient><polygon class="st50" points="-539.14 262.11 -548.08 277.58 -521.24 293.07" fill="url(#SVGID_51_)"/><linearGradient id="SVGID_52_" x1="-564.82" x2="-564.82" y1="43.748" y2="405.17" gradientUnits="userSpaceOnUse"><stop stop-color="#DE4552" offset="0"/><stop stop-color="#231A72" offset="1"/></linearGradient><polygon class="st51" points="-560.34 293.99 -551.4 278.51 -578.25 263" fill="url(#SVGID_52_)"/><linearGradient id="SVGID_53_" x1="-539.68" x2="-539.68" y1="43.748" y2="405.17" gradientUnits="userSpaceOnUse"><stop stop-color="#DE4552" offset="0"/><stop stop-color="#231A72" offset="1"/></linearGradient><polygon class="st52" points="-558.95 296.4 -549.31 313.08 -520.42 296.39 -549.31 279.71" fill="url(#SVGID_53_)"/><linearGradient id="SVGID_54_" x1="-559.81" x2="-559.81" y1="43.748" y2="405.17" gradientUnits="userSpaceOnUse"><stop stop-color="#DE4552" offset="0"/><stop stop-color="#231A72" offset="1"/></linearGradient><polygon class="st53" points="-550.19 242.99 -579.09 259.67 -550.16 276.37 -540.53 259.7" fill="url(#SVGID_54_)"/><linearGradient id="SVGID_55_" x1="-564.84" x2="-564.84" y1="43.748" y2="405.17" gradientUnits="userSpaceOnUse"><stop stop-color="#DE4552" offset="0"/><stop stop-color="#231A72" offset="1"/></linearGradient><polygon class="st54" points="-560.35 220.6 -551.39 205.09 -578.29 189.56" fill="url(#SVGID_55_)"/><linearGradient id="SVGID_56_" x1="-564.83" x2="-564.83" y1="43.748" y2="405.17" gradientUnits="userSpaceOnUse"><stop stop-color="#DE4552" offset="0"/><stop stop-color="#231A72" offset="1"/></linearGradient><polygon class="st55" points="-578.26 256.39 -551.4 240.89 -560.35 225.41" fill="url(#SVGID_56_)"/></g><g transform="translate(662.34,-42.83)" fill="#231a72"><path class="st56" d="m-641.65 518.91c-5.82 0-10.64-1.7-14.46-5.11-4.16-4.15-6.23-9.6-6.23-16.33v-46.36c0-6.73 2.08-12.17 6.23-16.33 3.82-3.41 8.64-5.11 14.46-5.11 5.98 0 10.8 1.7 14.46 5.11 4.15 3.99 6.23 9.43 6.23 16.33v7.73h-13.71v-7.73c0-3.07-0.58-5.15-1.75-6.23-1.08-1-2.83-1.5-5.23-1.5-2.33 0-4.03 0.5-5.11 1.5-1.25 1.16-1.87 3.24-1.87 6.23v46.36c0 2.99 0.62 5.07 1.87 6.23 1.08 1 2.78 1.5 5.11 1.5 2.41 0 4.15-0.5 5.23-1.5 1.16-1.08 1.75-3.16 1.75-6.23v-16.33h-6.85v-13.71h20.56v30.04c0 6.9-2.08 12.34-6.23 16.33-3.66 3.41-8.48 5.11-14.46 5.11z"/><path class="st56" d="m-585.94 518.91c-5.98 0-10.8-1.7-14.46-5.11-4.16-3.99-6.23-9.43-6.23-16.33v-46.36c0-6.9 2.08-12.34 6.23-16.33 3.66-3.41 8.47-5.11 14.46-5.11s10.8 1.7 14.46 5.11c4.15 3.99 6.23 9.43 6.23 16.33v46.36c0 6.9-2.08 12.34-6.23 16.33-3.66 3.41-8.48 5.11-14.46 5.11zm0-75.53c-2.33 0-4.03 0.5-5.11 1.5-1.25 1.16-1.87 3.24-1.87 6.23v46.36c0 2.99 0.62 5.07 1.87 6.23 1.08 1 2.78 1.5 5.11 1.5 2.41 0 4.11-0.5 5.11-1.5 1.25-1.08 1.87-3.16 1.87-6.23v-46.36c0-3.07-0.62-5.15-1.87-6.23-1-1-2.7-1.5-5.11-1.5z"/><path class="st56" d="m-509.17 517.91h-13.96l-7.1-35.02h-6.23v35.02h-13.71v-87.24h20.69c5.9 0 10.72 1.74 14.46 5.23 4.15 3.82 6.23 9.22 6.23 16.2v9.35c0 7.06-2.08 12.51-6.23 16.33-0.58 0.58-1.25 1.12-1.99 1.62zm-13.34-65.8c0-2.91-0.62-4.99-1.87-6.23-1.08-1-2.78-1.5-5.11-1.5h-6.98v24.8h6.98c2.33 0 4.03-0.5 5.11-1.5 1.25-1.16 1.87-3.24 1.87-6.23z"/><path class="st56" d="m-474.9 518.91c-5.82 0-10.64-1.7-14.46-5.11-4.16-4.15-6.23-9.6-6.23-16.33v-46.36c0-6.73 2.08-12.17 6.23-16.33 3.82-3.41 8.64-5.11 14.46-5.11 5.98 0 10.8 1.7 14.46 5.11 4.15 3.99 6.23 9.43 6.23 16.33v7.73h-13.71v-7.73c0-3.07-0.58-5.15-1.75-6.23-1.08-1-2.83-1.5-5.23-1.5-2.33 0-4.03 0.5-5.11 1.5-1.25 1.16-1.87 3.24-1.87 6.23v46.36c0 2.99 0.62 5.07 1.87 6.23 1.08 1 2.78 1.5 5.11 1.5 2.41 0 4.15-0.5 5.23-1.5 1.16-1.08 1.75-3.16 1.75-6.23v-16.33h-6.85v-13.71h20.56v30.04c0 6.9-2.08 12.34-6.23 16.33-3.66 3.41-8.48 5.11-14.46 5.11z"/><path class="st56" d="m-419.19 518.91c-5.98 0-10.8-1.7-14.46-5.11-4.16-3.99-6.23-9.43-6.23-16.33v-46.36c0-6.9 2.08-12.34 6.23-16.33 3.66-3.41 8.47-5.11 14.46-5.11s10.8 1.7 14.46 5.11c4.15 3.99 6.23 9.43 6.23 16.33v46.36c0 6.9-2.08 12.34-6.23 16.33-3.66 3.41-8.48 5.11-14.46 5.11zm0-75.53c-2.33 0-4.03 0.5-5.11 1.5-1.25 1.16-1.87 3.24-1.87 6.23v46.36c0 2.99 0.62 5.07 1.87 6.23 1.08 1 2.78 1.5 5.11 1.5 2.41 0 4.11-0.5 5.11-1.5 1.25-1.08 1.87-3.16 1.87-6.23v-46.36c0-3.07-0.62-5.15-1.87-6.23-1-1-2.7-1.5-5.11-1.5z"/><path class="st56" d="m-341.3 430.67v87.24h-7.98l-20.94-44.24v44.24h-13.71v-87.24h7.98l20.94 44.12v-44.12z"/><path class="st56" d="m-325.6 517.91v-87.24h13.71v87.24z"/><path class="st56" d="m-264.4 517.91-2.49-13.83h-15.7l-2.49 13.83h-13.96l17.45-87.24h13.71l17.45 87.24zm-15.83-27.54h10.97l-5.48-31.28z"/></g><linearGradient id="SVGID_169_" x1="1540.1" x2="1540.1" y1="516.22" y2="568.35" gradientTransform="translate(662.34,-42.83)" gradientUnits="userSpaceOnUse"><stop stop-color="#DE4552" offset="0"/><stop stop-color="#231A72" offset="1"/></linearGradient></svg>
