<?xml version="1.0" encoding="UTF-8"?>
<!-- Generator: Adobe Illustrator 23.0.3, SVG Export Plug-In . SVG Version: 6.00 Build 0)  -->
<svg width="366.6" height="524.16" version="1.1" viewBox="0 0 366.6 524.15995" xml:space="preserve" xmlns="http://www.w3.org/2000/svg" xmlns:cc="http://creativecommons.org/ns#" xmlns:dc="http://purl.org/dc/elements/1.1/" xmlns:rdf="http://www.w3.org/1999/02/22-rdf-syntax-ns#"><metadata><rdf:RDF><cc:Work rdf:about=""><dc:format>image/svg+xml</dc:format><dc:type rdf:resource="http://purl.org/dc/dcmitype/StillImage"/><dc:title/></cc:Work></rdf:RDF></metadata><style type="text/css">
	.st0{fill:url(#SVGID_1_);}
	.st1{fill:url(#SVGID_2_);}
	.st2{fill:url(#SVGID_3_);}
	.st3{fill:url(#SVGID_4_);}
	.st4{fill:url(#SVGID_5_);}
	.st5{fill:url(#SVGID_6_);}
	.st6{fill:url(#SVGID_7_);}
	.st7{fill:url(#SVGID_8_);}
	.st8{fill:url(#SVGID_9_);}
	.st9{fill:url(#SVGID_10_);}
	.st10{fill:url(#SVGID_11_);}
	.st11{fill:url(#SVGID_12_);}
	.st12{fill:url(#SVGID_13_);}
	.st13{fill:url(#SVGID_14_);}
	.st14{fill:url(#SVGID_15_);}
	.st15{fill:url(#SVGID_16_);}
	.st16{fill:url(#SVGID_17_);}
	.st17{fill:url(#SVGID_18_);}
	.st18{fill:url(#SVGID_19_);}
	.st19{fill:url(#SVGID_20_);}
	.st20{fill:url(#SVGID_21_);}
	.st21{fill:url(#SVGID_22_);}
	.st22{fill:url(#SVGID_23_);}
	.st23{fill:url(#SVGID_24_);}
	.st24{fill:url(#SVGID_25_);}
	.st25{fill:url(#SVGID_26_);}
	.st26{fill:url(#SVGID_27_);}
	.st27{fill:url(#SVGID_28_);}
	.st28{fill:url(#SVGID_29_);}
	.st29{fill:url(#SVGID_30_);}
	.st30{fill:url(#SVGID_31_);}
	.st31{fill:url(#SVGID_32_);}
	.st32{fill:url(#SVGID_33_);}
	.st33{fill:url(#SVGID_34_);}
	.st34{fill:url(#SVGID_35_);}
	.st35{fill:url(#SVGID_36_);}
	.st36{fill:url(#SVGID_37_);}
	.st37{fill:url(#SVGID_38_);}
	.st38{fill:url(#SVGID_39_);}
	.st39{fill:url(#SVGID_40_);}
	.st40{fill:url(#SVGID_41_);}
	.st41{fill:url(#SVGID_42_);}
	.st42{fill:url(#SVGID_43_);}
	.st43{fill:url(#SVGID_44_);}
	.st44{fill:url(#SVGID_45_);}
	.st45{fill:url(#SVGID_46_);}
	.st46{fill:url(#SVGID_47_);}
	.st47{fill:url(#SVGID_48_);}
	.st48{fill:url(#SVGID_49_);}
	.st49{fill:url(#SVGID_50_);}
	.st50{fill:url(#SVGID_51_);}
	.st51{fill:url(#SVGID_52_);}
	.st52{fill:url(#SVGID_53_);}
	.st53{fill:url(#SVGID_54_);}
	.st54{fill:url(#SVGID_55_);}
	.st55{fill:url(#SVGID_56_);}
	.st56{fill:#231A72;}
	.st57{fill:url(#SVGID_57_);}
	.st58{fill:url(#SVGID_58_);}
	.st59{fill:url(#SVGID_59_);}
	.st60{fill:url(#SVGID_60_);}
	.st61{fill:url(#SVGID_61_);}
	.st62{fill:url(#SVGID_62_);}
	.st63{fill:url(#SVGID_63_);}
	.st64{fill:url(#SVGID_64_);}
	.st65{fill:url(#SVGID_65_);}
	.st66{fill:url(#SVGID_66_);}
	.st67{fill:url(#SVGID_67_);}
	.st68{fill:url(#SVGID_68_);}
	.st69{fill:url(#SVGID_69_);}
	.st70{fill:url(#SVGID_70_);}
	.st71{fill:url(#SVGID_71_);}
	.st72{fill:url(#SVGID_72_);}
	.st73{fill:url(#SVGID_73_);}
	.st74{fill:url(#SVGID_74_);}
	.st75{fill:url(#SVGID_75_);}
	.st76{fill:url(#SVGID_76_);}
	.st77{fill:url(#SVGID_77_);}
	.st78{fill:url(#SVGID_78_);}
	.st79{fill:url(#SVGID_79_);}
	.st80{fill:url(#SVGID_80_);}
	.st81{fill:url(#SVGID_81_);}
	.st82{fill:url(#SVGID_82_);}
	.st83{fill:url(#SVGID_83_);}
	.st84{fill:url(#SVGID_84_);}
	.st85{fill:url(#SVGID_85_);}
	.st86{fill:url(#SVGID_86_);}
	.st87{fill:url(#SVGID_87_);}
	.st88{fill:url(#SVGID_88_);}
	.st89{fill:url(#SVGID_89_);}
	.st90{fill:url(#SVGID_90_);}
	.st91{fill:url(#SVGID_91_);}
	.st92{fill:url(#SVGID_92_);}
	.st93{fill:url(#SVGID_93_);}
	.st94{fill:url(#SVGID_94_);}
	.st95{fill:url(#SVGID_95_);}
	.st96{fill:url(#SVGID_96_);}
	.st97{fill:url(#SVGID_97_);}
	.st98{fill:url(#SVGID_98_);}
	.st99{fill:url(#SVGID_99_);}
	.st100{fill:url(#SVGID_100_);}
	.st101{fill:url(#SVGID_101_);}
	.st102{fill:url(#SVGID_102_);}
	.st103{fill:url(#SVGID_103_);}
	.st104{fill:url(#SVGID_104_);}
	.st105{fill:url(#SVGID_105_);}
	.st106{fill:url(#SVGID_106_);}
	.st107{fill:url(#SVGID_107_);}
	.st108{fill:url(#SVGID_108_);}
	.st109{fill:url(#SVGID_109_);}
	.st110{fill:url(#SVGID_110_);}
	.st111{fill:url(#SVGID_111_);}
	.st112{fill:url(#SVGID_112_);}
	.st113{fill:url(#SVGID_113_);}
	.st114{fill:url(#SVGID_114_);}
	.st115{fill:url(#SVGID_115_);}
	.st116{fill:url(#SVGID_116_);}
	.st117{fill:url(#SVGID_117_);}
	.st118{fill:url(#SVGID_118_);}
	.st119{fill:url(#SVGID_119_);}
	.st120{fill:url(#SVGID_120_);}
	.st121{fill:url(#SVGID_121_);}
	.st122{fill:url(#SVGID_122_);}
	.st123{fill:url(#SVGID_123_);}
	.st124{fill:url(#SVGID_124_);}
	.st125{fill:url(#SVGID_125_);}
	.st126{fill:url(#SVGID_126_);}
	.st127{fill:url(#SVGID_127_);}
	.st128{fill:url(#SVGID_128_);}
	.st129{fill:url(#SVGID_129_);}
	.st130{fill:url(#SVGID_130_);}
	.st131{fill:url(#SVGID_131_);}
	.st132{fill:url(#SVGID_132_);}
	.st133{fill:url(#SVGID_133_);}
	.st134{fill:url(#SVGID_134_);}
	.st135{fill:url(#SVGID_135_);}
	.st136{fill:url(#SVGID_136_);}
	.st137{fill:url(#SVGID_137_);}
	.st138{fill:url(#SVGID_138_);}
	.st139{fill:url(#SVGID_139_);}
	.st140{fill:url(#SVGID_140_);}
	.st141{fill:url(#SVGID_141_);}
	.st142{fill:url(#SVGID_142_);}
	.st143{fill:url(#SVGID_143_);}
	.st144{fill:url(#SVGID_144_);}
	.st145{fill:url(#SVGID_145_);}
	.st146{fill:url(#SVGID_146_);}
	.st147{fill:url(#SVGID_147_);}
	.st148{fill:url(#SVGID_148_);}
	.st149{fill:url(#SVGID_149_);}
	.st150{fill:url(#SVGID_150_);}
	.st151{fill:url(#SVGID_151_);}
	.st152{fill:url(#SVGID_152_);}
	.st153{fill:url(#SVGID_153_);}
	.st154{fill:url(#SVGID_154_);}
	.st155{fill:url(#SVGID_155_);}
	.st156{fill:url(#SVGID_156_);}
	.st157{fill:url(#SVGID_157_);}
	.st158{fill:url(#SVGID_158_);}
	.st159{fill:url(#SVGID_159_);}
	.st160{fill:url(#SVGID_160_);}
	.st161{fill:url(#SVGID_161_);}
	.st162{fill:url(#SVGID_162_);}
	.st163{fill:url(#SVGID_163_);}
	.st164{fill:url(#SVGID_164_);}
	.st165{fill:url(#SVGID_165_);}
	.st166{fill:url(#SVGID_166_);}
	.st167{fill:url(#SVGID_167_);}
	.st168{fill:url(#SVGID_168_);}
	.st169{fill:#DE4552;}
	.st170{fill:url(#SVGID_169_);}
</style><g transform="translate(-1793.1 -36.39)"><linearGradient id="SVGID_113_" x1="1906.7" x2="1906.7" y1="37.725" y2="563.46" gradientUnits="userSpaceOnUse"><stop stop-color="#DE4552" offset="0"/><stop stop-color="#231A72" offset="1"/></linearGradient><polygon class="st113" points="1885.6 88.11 1885.6 185.29 1927.7 112.41" fill="url(#SVGID_113_)"/><linearGradient id="SVGID_114_" x1="1930.8" x2="1930.8" y1="37.725" y2="563.46" gradientUnits="userSpaceOnUse"><stop stop-color="#DE4552" offset="0"/><stop stop-color="#231A72" offset="1"/></linearGradient><polygon class="st114" points="1930.9 482.85 1972.9 458.6 1888.7 410.01" fill="url(#SVGID_114_)"/><linearGradient id="SVGID_115_" x1="1953.5" x2="1953.5" y1="37.725" y2="563.46" gradientUnits="userSpaceOnUse"><stop stop-color="#DE4552" offset="0"/><stop stop-color="#231A72" offset="1"/></linearGradient><polygon class="st115" points="1974.6 135.37 1974.6 38.27 1932.5 111.09" fill="url(#SVGID_115_)"/><linearGradient id="SVGID_116_" x1="1930.7" x2="1930.7" y1="37.725" y2="563.46" gradientUnits="userSpaceOnUse"><stop stop-color="#DE4552" offset="0"/><stop stop-color="#231A72" offset="1"/></linearGradient><polygon class="st116" points="1930.7 114.16 1888.7 187.04 1972.8 138.45" fill="url(#SVGID_116_)"/><linearGradient id="SVGID_117_" x1="1929.7" x2="1929.7" y1="37.725" y2="563.46" gradientUnits="userSpaceOnUse"><stop stop-color="#DE4552" offset="0"/><stop stop-color="#231A72" offset="1"/></linearGradient><polygon class="st117" points="1971.7 560.44 1929.6 487.66 1887.6 511.9" fill="url(#SVGID_117_)"/><linearGradient id="SVGID_118_" x1="1953.7" x2="1953.7" y1="37.725" y2="563.46" gradientUnits="userSpaceOnUse"><stop stop-color="#DE4552" offset="0"/><stop stop-color="#231A72" offset="1"/></linearGradient><polygon class="st118" points="1974.8 558.81 1974.8 461.56 1932.6 485.9" fill="url(#SVGID_118_)"/><linearGradient id="SVGID_119_" x1="1929.5" x2="1929.5" y1="37.725" y2="563.46" gradientUnits="userSpaceOnUse"><stop stop-color="#DE4552" offset="0"/><stop stop-color="#231A72" offset="1"/></linearGradient><polygon class="st119" points="1887.4 85.02 1929.5 109.33 1971.6 36.39" fill="url(#SVGID_119_)"/><linearGradient id="SVGID_120_" x1="2046" x2="2046" y1="37.725" y2="563.46" gradientUnits="userSpaceOnUse"><stop stop-color="#DE4552" offset="0"/><stop stop-color="#231A72" offset="1"/></linearGradient><polygon class="st120" points="2067 185.36 2067 88.14 2025 112.44" fill="url(#SVGID_120_)"/><linearGradient id="SVGID_121_" x1="2115.7" x2="2115.7" y1="37.725" y2="563.46" gradientUnits="userSpaceOnUse"><stop stop-color="#DE4552" offset="0"/><stop stop-color="#231A72" offset="1"/></linearGradient><polygon class="st121" points="2073.6 89.96 2115.7 162.75 2157.7 138.5" fill="url(#SVGID_121_)"/><linearGradient id="SVGID_122_" x1="1999.1" x2="1999.1" y1="37.725" y2="563.46" gradientUnits="userSpaceOnUse"><stop stop-color="#DE4552" offset="0"/><stop stop-color="#231A72" offset="1"/></linearGradient><polygon class="st122" points="1978.1 38.27 1978.1 135.41 2020.2 111.13" fill="url(#SVGID_122_)"/><linearGradient id="SVGID_123_" x1="2138.5" x2="2138.5" y1="37.725" y2="563.46" gradientUnits="userSpaceOnUse"><stop stop-color="#DE4552" offset="0"/><stop stop-color="#231A72" offset="1"/></linearGradient><polygon class="st123" points="2159.6 238.66 2159.6 141.53 2117.5 165.83" fill="url(#SVGID_123_)"/><linearGradient id="SVGID_124_" x1="2021.9" x2="2021.9" y1="37.725" y2="563.46" gradientUnits="userSpaceOnUse"><stop stop-color="#DE4552" offset="0"/><stop stop-color="#231A72" offset="1"/></linearGradient><polygon class="st124" points="2021.9 114.2 1979.9 138.47 2063.9 187.01" fill="url(#SVGID_124_)"/><linearGradient id="SVGID_125_" x1="2023.2" x2="2023.2" y1="37.725" y2="563.46" gradientUnits="userSpaceOnUse"><stop stop-color="#DE4552" offset="0"/><stop stop-color="#231A72" offset="1"/></linearGradient><polygon class="st125" points="1981.1 36.5 2023.2 109.37 2065.3 85.08" fill="url(#SVGID_125_)"/><linearGradient id="SVGID_126_" x1="2091.6" x2="2091.6" y1="37.725" y2="563.46" gradientUnits="userSpaceOnUse"><stop stop-color="#DE4552" offset="0"/><stop stop-color="#231A72" offset="1"/></linearGradient><polygon class="st126" points="2070.6 91.64 2070.6 188.81 2112.7 164.5" fill="url(#SVGID_126_)"/><linearGradient id="SVGID_127_" x1="2100.6" x2="2100.6" y1="37.725" y2="563.46" gradientUnits="userSpaceOnUse"><stop stop-color="#DE4552" offset="0"/><stop stop-color="#231A72" offset="1"/></linearGradient><polygon class="st127" points="2114.6 429.53 2128.7 405.22 2114.7 380.92 2108.1 384.71 2072.6 405.23" fill="url(#SVGID_127_)"/><linearGradient id="SVGID_128_" x1="2115.9" x2="2115.9" y1="37.725" y2="563.46" gradientUnits="userSpaceOnUse"><stop stop-color="#DE4552" offset="0"/><stop stop-color="#231A72" offset="1"/></linearGradient><polygon class="st128" points="2158 458.62 2115.9 434.34 2073.8 507.21" fill="url(#SVGID_128_)"/><linearGradient id="SVGID_129_" x1="2091.8" x2="2091.8" y1="37.725" y2="563.46" gradientUnits="userSpaceOnUse"><stop stop-color="#DE4552" offset="0"/><stop stop-color="#231A72" offset="1"/></linearGradient><polygon class="st129" points="2070.8 408.29 2070.8 505.42 2112.9 432.59" fill="url(#SVGID_129_)"/><linearGradient id="SVGID_130_" x1="2091.9" x2="2091.9" y1="37.725" y2="563.46" gradientUnits="userSpaceOnUse"><stop stop-color="#DE4552" offset="0"/><stop stop-color="#231A72" offset="1"/></linearGradient><polygon class="st130" points="2112.9 377.88 2070.9 304.94 2070.9 402.16 2090.9 390.61" fill="url(#SVGID_130_)"/><linearGradient id="SVGID_131_" x1="2137.2" x2="2137.2" y1="37.725" y2="563.46" gradientUnits="userSpaceOnUse"><stop stop-color="#DE4552" offset="0"/><stop stop-color="#231A72" offset="1"/></linearGradient><polygon class="st131" points="2117.7 431.28 2156.7 453.81 2130.7 408.73" fill="url(#SVGID_131_)"/><linearGradient id="SVGID_132_" x1="2137.2" x2="2137.2" y1="37.725" y2="563.46" gradientUnits="userSpaceOnUse"><stop stop-color="#DE4552" offset="0"/><stop stop-color="#231A72" offset="1"/></linearGradient><polygon class="st132" points="2156.8 356.61 2117.7 379.16 2130.7 401.71" fill="url(#SVGID_132_)"/><linearGradient id="SVGID_133_" x1="2116" x2="2116" y1="37.725" y2="563.46" gradientUnits="userSpaceOnUse"><stop stop-color="#DE4552" offset="0"/><stop stop-color="#231A72" offset="1"/></linearGradient><polygon class="st133" points="2146.4 345.1 2073.9 303.24 2116 376.12 2158 351.85" fill="url(#SVGID_133_)"/><linearGradient id="SVGID_134_" x1="2023.4" x2="2023.4" y1="37.725" y2="563.46" gradientUnits="userSpaceOnUse"><stop stop-color="#DE4552" offset="0"/><stop stop-color="#231A72" offset="1"/></linearGradient><polygon class="st134" points="2065.5 511.98 2023.4 487.69 1981.4 560.55" fill="url(#SVGID_134_)"/><linearGradient id="SVGID_135_" x1="2022.2" x2="2022.2" y1="37.725" y2="563.46" gradientUnits="userSpaceOnUse"><stop stop-color="#DE4552" offset="0"/><stop stop-color="#231A72" offset="1"/></linearGradient><polygon class="st135" points="2022.2 482.87 2064.2 410.01 1980.1 458.59" fill="url(#SVGID_135_)"/><linearGradient id="SVGID_136_" x1="2046.2" x2="2046.2" y1="37.725" y2="563.46" gradientUnits="userSpaceOnUse"><stop stop-color="#DE4552" offset="0"/><stop stop-color="#231A72" offset="1"/></linearGradient><polygon class="st136" points="2067.3 508.92 2067.3 411.77 2025.2 484.63" fill="url(#SVGID_136_)"/><linearGradient id="SVGID_137_" x1="1906.8" x2="1906.8" y1="37.725" y2="563.46" gradientUnits="userSpaceOnUse"><stop stop-color="#DE4552" offset="0"/><stop stop-color="#231A72" offset="1"/></linearGradient><polygon class="st137" points="1885.7 411.75 1885.7 508.93 1927.8 484.61" fill="url(#SVGID_137_)"/><linearGradient id="SVGID_138_" x1="2146.2" x2="2146.2" y1="37.725" y2="563.46" gradientUnits="userSpaceOnUse"><stop stop-color="#DE4552" offset="0"/><stop stop-color="#231A72" offset="1"/></linearGradient><polygon class="st138" points="2159.7 452.04 2159.7 358.49 2132.7 405.22" fill="url(#SVGID_138_)"/><linearGradient id="SVGID_139_" x1="1999.3" x2="1999.3" y1="37.725" y2="563.46" gradientUnits="userSpaceOnUse"><stop stop-color="#DE4552" offset="0"/><stop stop-color="#231A72" offset="1"/></linearGradient><polygon class="st139" points="1978.3 461.65 1978.3 558.8 2020.4 485.94" fill="url(#SVGID_139_)"/><linearGradient id="SVGID_140_" x1="2114.5" x2="2114.5" y1="37.725" y2="563.46" gradientUnits="userSpaceOnUse"><stop stop-color="#DE4552" offset="0"/><stop stop-color="#231A72" offset="1"/></linearGradient><polygon class="st140" points="2114.5 167.59 2072.4 191.84 2156.6 240.4" fill="url(#SVGID_140_)"/><linearGradient id="SVGID_141_" x1="1852.2" x2="1852.2" y1="37.725" y2="563.46" gradientUnits="userSpaceOnUse"><stop stop-color="#DE4552" offset="0"/><stop stop-color="#231A72" offset="1"/></linearGradient><polygon class="st141" points="1838.2 216.07 1880.3 191.75 1838.3 167.48 1824.2 191.88" fill="url(#SVGID_141_)"/><linearGradient id="SVGID_142_" x1="1861.1" x2="1861.1" y1="37.725" y2="563.46" gradientUnits="userSpaceOnUse"><stop stop-color="#DE4552" offset="0"/><stop stop-color="#231A72" offset="1"/></linearGradient><polygon class="st142" points="1882.1 188.7 1882.1 91.61 1840 164.41" fill="url(#SVGID_142_)"/><linearGradient id="SVGID_143_" x1="2046.3" x2="2046.3" y1="37.725" y2="563.46" gradientUnits="userSpaceOnUse"><stop stop-color="#DE4552" offset="0"/><stop stop-color="#231A72" offset="1"/></linearGradient><polygon class="st143" points="2067.4 398.64 2067.4 301.47 2025.3 325.76" fill="url(#SVGID_143_)"/><linearGradient id="SVGID_144_" x1="1837" x2="1837" y1="37.725" y2="563.46" gradientUnits="userSpaceOnUse"><stop stop-color="#DE4552" offset="0"/><stop stop-color="#231A72" offset="1"/></linearGradient><polygon class="st144" points="1794.9 138.36 1837 162.66 1879.1 89.75" fill="url(#SVGID_144_)"/><linearGradient id="SVGID_145_" x1="1859.6" x2="1859.6" y1="37.725" y2="563.46" gradientUnits="userSpaceOnUse"><stop stop-color="#DE4552" offset="0"/><stop stop-color="#231A72" offset="1"/></linearGradient><polygon class="st145" points="1879.1 196.5 1840 219.12 1853 241.67" fill="url(#SVGID_145_)"/><linearGradient id="SVGID_146_" x1="1852.3" x2="1852.3" y1="37.725" y2="563.46" gradientUnits="userSpaceOnUse"><stop stop-color="#DE4552" offset="0"/><stop stop-color="#231A72" offset="1"/></linearGradient><polygon class="st146" points="1838.3 322.74 1880.4 298.45 1838.3 274.18 1824.2 298.48" fill="url(#SVGID_146_)"/><linearGradient id="SVGID_147_" x1="1859.6" x2="1859.6" y1="37.725" y2="563.46" gradientUnits="userSpaceOnUse"><stop stop-color="#DE4552" offset="0"/><stop stop-color="#231A72" offset="1"/></linearGradient><polygon class="st147" points="1853 248.68 1840.1 271.13 1879.1 293.68" fill="url(#SVGID_147_)"/><linearGradient id="SVGID_148_" x1="1806.7" x2="1806.7" y1="37.725" y2="563.46" gradientUnits="userSpaceOnUse"><stop stop-color="#DE4552" offset="0"/><stop stop-color="#231A72" offset="1"/></linearGradient><polygon class="st148" points="1793.1 251.67 1793.1 345.3 1820.2 298.48" fill="url(#SVGID_148_)"/><linearGradient id="SVGID_149_" x1="1868.6" x2="1868.6" y1="37.725" y2="563.46" gradientUnits="userSpaceOnUse"><stop stop-color="#DE4552" offset="0"/><stop stop-color="#231A72" offset="1"/></linearGradient><polygon class="st149" points="1882.2 398.67 1882.2 305.03 1855.1 351.86" fill="url(#SVGID_149_)"/><linearGradient id="SVGID_150_" x1="1861.1" x2="1861.1" y1="37.725" y2="563.46" gradientUnits="userSpaceOnUse"><stop stop-color="#DE4552" offset="0"/><stop stop-color="#231A72" offset="1"/></linearGradient><polygon class="st150" points="1882.1 505.32 1882.1 408.29 1840.1 432.56" fill="url(#SVGID_150_)"/><linearGradient id="SVGID_151_" x1="1868.6" x2="1868.6" y1="37.725" y2="563.46" gradientUnits="userSpaceOnUse"><stop stop-color="#DE4552" offset="0"/><stop stop-color="#231A72" offset="1"/></linearGradient><polygon class="st151" points="1882.2 291.96 1882.2 198.26 1855.1 245.17" fill="url(#SVGID_151_)"/><linearGradient id="SVGID_152_" x1="1806.7" x2="1806.7" y1="37.725" y2="563.46" gradientUnits="userSpaceOnUse"><stop stop-color="#DE4552" offset="0"/><stop stop-color="#231A72" offset="1"/></linearGradient><polygon class="st152" points="1793.1 358.39 1793.1 452.09 1820.2 405.24" fill="url(#SVGID_152_)"/><linearGradient id="SVGID_153_" x1="1859.6" x2="1859.6" y1="37.725" y2="563.46" gradientUnits="userSpaceOnUse"><stop stop-color="#DE4552" offset="0"/><stop stop-color="#231A72" offset="1"/></linearGradient><polygon class="st153" points="1879.2 303.19 1840 325.79 1853.1 348.35" fill="url(#SVGID_153_)"/><linearGradient id="SVGID_154_" x1="1837" x2="1837" y1="37.725" y2="563.46" gradientUnits="userSpaceOnUse"><stop stop-color="#DE4552" offset="0"/><stop stop-color="#231A72" offset="1"/></linearGradient><polygon class="st154" points="1879.2 507.26 1837 434.31 1794.9 458.62" fill="url(#SVGID_154_)"/><linearGradient id="SVGID_155_" x1="1806.6" x2="1806.6" y1="37.725" y2="563.46" gradientUnits="userSpaceOnUse"><stop stop-color="#DE4552" offset="0"/><stop stop-color="#231A72" offset="1"/></linearGradient><polygon class="st155" points="1793.1 145.33 1793.1 238.58 1820.1 191.88" fill="url(#SVGID_155_)"/><linearGradient id="SVGID_156_" x1="1999.4" x2="1999.4" y1="37.725" y2="563.46" gradientUnits="userSpaceOnUse"><stop stop-color="#DE4552" offset="0"/><stop stop-color="#231A72" offset="1"/></linearGradient><polygon class="st156" points="1978.4 251.55 1978.4 348.73 2020.5 324.44" fill="url(#SVGID_156_)"/><linearGradient id="SVGID_157_" x1="1815.7" x2="1815.7" y1="37.725" y2="563.46" gradientUnits="userSpaceOnUse"><stop stop-color="#DE4552" offset="0"/><stop stop-color="#231A72" offset="1"/></linearGradient><polygon class="st157" points="1796.2 240.33 1835.2 217.83 1822.2 195.38" fill="url(#SVGID_157_)"/><linearGradient id="SVGID_158_" x1="1815.5" x2="1815.5" y1="37.725" y2="563.46" gradientUnits="userSpaceOnUse"><stop stop-color="#DE4552" offset="0"/><stop stop-color="#231A72" offset="1"/></linearGradient><polygon class="st158" points="1835.2 165.72 1795.8 142.97 1822.2 188.38" fill="url(#SVGID_158_)"/><linearGradient id="SVGID_159_" x1="2023.5" x2="2023.5" y1="37.725" y2="563.46" gradientUnits="userSpaceOnUse"><stop stop-color="#DE4552" offset="0"/><stop stop-color="#231A72" offset="1"/></linearGradient><polygon class="st159" points="1981.4 249.79 2023.5 322.68 2065.6 298.38" fill="url(#SVGID_159_)"/><linearGradient id="SVGID_160_" x1="1823" x2="1823" y1="37.725" y2="563.46" gradientUnits="userSpaceOnUse"><stop stop-color="#DE4552" offset="0"/><stop stop-color="#231A72" offset="1"/></linearGradient><polygon class="st160" points="1836.9 220.87 1795 245.1 1837 269.38 1851 245.18" fill="url(#SVGID_160_)"/><linearGradient id="SVGID_161_" x1="2022.2" x2="2022.2" y1="37.725" y2="563.46" gradientUnits="userSpaceOnUse"><stop stop-color="#DE4552" offset="0"/><stop stop-color="#231A72" offset="1"/></linearGradient><polygon class="st161" points="2022.2 327.51 1980.1 351.81 2064.3 400.4" fill="url(#SVGID_161_)"/><linearGradient id="SVGID_162_" x1="1815.7" x2="1815.7" y1="37.725" y2="563.46" gradientUnits="userSpaceOnUse"><stop stop-color="#DE4552" offset="0"/><stop stop-color="#231A72" offset="1"/></linearGradient><polygon class="st162" points="1796.2 453.8 1835.2 431.25 1822.2 408.74" fill="url(#SVGID_162_)"/><linearGradient id="SVGID_163_" x1="1859.6" x2="1859.6" y1="37.725" y2="563.46" gradientUnits="userSpaceOnUse"><stop stop-color="#DE4552" offset="0"/><stop stop-color="#231A72" offset="1"/></linearGradient><polygon class="st163" points="1853.1 355.36 1840.1 377.86 1879.1 400.4" fill="url(#SVGID_163_)"/><linearGradient id="SVGID_164_" x1="1815.7" x2="1815.7" y1="37.725" y2="563.46" gradientUnits="userSpaceOnUse"><stop stop-color="#DE4552" offset="0"/><stop stop-color="#231A72" offset="1"/></linearGradient><polygon class="st164" points="1822.2 401.73 1835.2 379.21 1796.2 356.66" fill="url(#SVGID_164_)"/><linearGradient id="SVGID_165_" x1="1852.3" x2="1852.3" y1="37.725" y2="563.46" gradientUnits="userSpaceOnUse"><stop stop-color="#DE4552" offset="0"/><stop stop-color="#231A72" offset="1"/></linearGradient><polygon class="st165" points="1824.3 405.24 1838.3 429.5 1880.3 405.23 1838.3 380.97" fill="url(#SVGID_165_)"/><linearGradient id="SVGID_166_" x1="1823" x2="1823" y1="37.725" y2="563.46" gradientUnits="userSpaceOnUse"><stop stop-color="#DE4552" offset="0"/><stop stop-color="#231A72" offset="1"/></linearGradient><polygon class="st166" points="1837 327.54 1795 351.81 1837 376.11 1851.1 351.86" fill="url(#SVGID_166_)"/><linearGradient id="SVGID_167_" x1="1815.7" x2="1815.7" y1="37.725" y2="563.46" gradientUnits="userSpaceOnUse"><stop stop-color="#DE4552" offset="0"/><stop stop-color="#231A72" offset="1"/></linearGradient><polygon class="st167" points="1822.2 294.97 1835.3 272.42 1796.1 249.83" fill="url(#SVGID_167_)"/><linearGradient id="SVGID_168_" x1="1815.7" x2="1815.7" y1="37.725" y2="563.46" gradientUnits="userSpaceOnUse"><stop stop-color="#DE4552" offset="0"/><stop stop-color="#231A72" offset="1"/></linearGradient><polygon class="st168" points="1796.2 347.05 1835.2 324.49 1822.2 301.98" fill="url(#SVGID_168_)"/></g><linearGradient id="SVGID_169_" x1="2402" x2="2402" y1="516.22" y2="568.35" gradientTransform="translate(-1793.1 -36.39)" gradientUnits="userSpaceOnUse"><stop stop-color="#DE4552" offset="0"/><stop stop-color="#231A72" offset="1"/></linearGradient></svg>
